<svg xmlns="http://www.w3.org/2000/svg" width="63" height="45"><path d="M15 0h1v1h-1zM16 0h1v1h-1z" shape-rendering="crispEdges" style="fill:#3c3440;opacity:255"/><path d="M17 0h1v1h-1z" shape-rendering="crispEdges" style="fill:#3c3441;opacity:255"/><path d="M18 0h1v1h-1zM19 0h1v1h-1zM20 0h1v1h-1z" shape-rendering="crispEdges" style="fill:#3c3440;opacity:255"/><path d="M42 0h1v1h-1z" shape-rendering="crispEdges" style="fill:#3d3440;opacity:255"/><path d="M43 0h1v1h-1zM44 0h1v1h-1zM45 0h1v1h-1zM46 0h1v1h-1zM47 0h1v1h-1zM15 1h1v1h-1zM16 1h1v1h-1zM17 1h1v1h-1zM18 1h1v1h-1zM19 1h1v1h-1zM20 1h1v1h-1zM42 1h1v1h-1zM43 1h1v1h-1z" shape-rendering="crispEdges" style="fill:#3c3440;opacity:255"/><path d="M44 1h1v1h-1z" shape-rendering="crispEdges" style="fill:#3c3441;opacity:255"/><path d="M45 1h1v1h-1zM46 1h1v1h-1zM47 1h1v1h-1z" shape-rendering="crispEdges" style="fill:#3c3440;opacity:255"/><path d="M15 2h1v1h-1z" shape-rendering="crispEdges" style="fill:#3d3440;opacity:255"/><path d="M16 2h1v1h-1zM17 2h1v1h-1zM18 2h1v1h-1zM19 2h1v1h-1zM20 2h1v1h-1zM42 2h1v1h-1z" shape-rendering="crispEdges" style="fill:#3c3440;opacity:255"/><path d="M43 2h1v1h-1z" shape-rendering="crispEdges" style="fill:#3c3540;opacity:255"/><path d="M44 2h1v1h-1zM45 2h1v1h-1zM46 2h1v1h-1zM47 2h1v1h-1zM12 3h1v1h-1zM13 3h1v1h-1zM14 3h1v1h-1z" shape-rendering="crispEdges" style="fill:#3c3440;opacity:255"/><path d="M15 3h1v1h-1zM16 3h1v1h-1zM17 3h1v1h-1zM18 3h1v1h-1zM19 3h1v1h-1zM20 3h1v1h-1z" shape-rendering="crispEdges" style="fill:#696a6a;opacity:255"/><path d="M21 3h1v1h-1zM22 3h1v1h-1z" shape-rendering="crispEdges" style="fill:#3c3440;opacity:255"/><path d="M23 3h1v1h-1z" shape-rendering="crispEdges" style="fill:#3c3441;opacity:255"/><path d="M39 3h1v1h-1zM40 3h1v1h-1z" shape-rendering="crispEdges" style="fill:#3c3440;opacity:255"/><path d="M41 3h1v1h-1z" shape-rendering="crispEdges" style="fill:#3c3441;opacity:255"/><path d="M42 3h1v1h-1zM43 3h1v1h-1z" shape-rendering="crispEdges" style="fill:#696a6a;opacity:255"/><path d="M44 3h1v1h-1z" shape-rendering="crispEdges" style="fill:#696a6b;opacity:255"/><path d="M45 3h1v1h-1zM46 3h1v1h-1zM47 3h1v1h-1z" shape-rendering="crispEdges" style="fill:#696a6a;opacity:255"/><path d="M48 3h1v1h-1zM49 3h1v1h-1zM50 3h1v1h-1zM12 4h1v1h-1zM13 4h1v1h-1zM14 4h1v1h-1z" shape-rendering="crispEdges" style="fill:#3c3440;opacity:255"/><path d="M15 4h1v1h-1zM16 4h1v1h-1z" shape-rendering="crispEdges" style="fill:#696a6a;opacity:255"/><path d="M17 4h1v1h-1z" shape-rendering="crispEdges" style="fill:#696a6b;opacity:255"/><path d="M18 4h1v1h-1zM19 4h1v1h-1zM20 4h1v1h-1z" shape-rendering="crispEdges" style="fill:#696a6a;opacity:255"/><path d="M21 4h1v1h-1zM22 4h1v1h-1zM23 4h1v1h-1zM39 4h1v1h-1zM40 4h1v1h-1zM41 4h1v1h-1z" shape-rendering="crispEdges" style="fill:#3c3440;opacity:255"/><path d="M42 4h1v1h-1zM43 4h1v1h-1zM44 4h1v1h-1zM45 4h1v1h-1zM46 4h1v1h-1zM47 4h1v1h-1z" shape-rendering="crispEdges" style="fill:#696a6a;opacity:255"/><path d="M48 4h1v1h-1zM49 4h1v1h-1zM50 4h1v1h-1zM12 5h1v1h-1zM13 5h1v1h-1z" shape-rendering="crispEdges" style="fill:#3c3440;opacity:255"/><path d="M14 5h1v1h-1z" shape-rendering="crispEdges" style="fill:#3c3441;opacity:255"/><path d="M15 5h1v1h-1zM16 5h1v1h-1zM17 5h1v1h-1zM18 5h1v1h-1zM19 5h1v1h-1zM20 5h1v1h-1z" shape-rendering="crispEdges" style="fill:#696a6a;opacity:255"/><path d="M21 5h1v1h-1z" shape-rendering="crispEdges" style="fill:#3c3440;opacity:255"/><path d="M22 5h1v1h-1z" shape-rendering="crispEdges" style="fill:#3c3540;opacity:255"/><path d="M23 5h1v1h-1zM39 5h1v1h-1zM40 5h1v1h-1zM41 5h1v1h-1z" shape-rendering="crispEdges" style="fill:#3c3440;opacity:255"/><path d="M42 5h1v1h-1zM43 5h1v1h-1zM44 5h1v1h-1zM45 5h1v1h-1zM46 5h1v1h-1zM47 5h1v1h-1z" shape-rendering="crispEdges" style="fill:#696a6a;opacity:255"/><path d="M48 5h1v1h-1zM49 5h1v1h-1zM50 5h1v1h-1zM12 6h1v1h-1zM13 6h1v1h-1zM14 6h1v1h-1z" shape-rendering="crispEdges" style="fill:#3c3440;opacity:255"/><path d="M15 6h1v1h-1zM16 6h1v1h-1zM17 6h1v1h-1z" shape-rendering="crispEdges" style="fill:#f5b0dc;opacity:255"/><path d="M18 6h1v1h-1zM19 6h1v1h-1zM20 6h1v1h-1zM21 6h1v1h-1zM22 6h1v1h-1zM23 6h1v1h-1z" shape-rendering="crispEdges" style="fill:#696a6a;opacity:255"/><path d="M24 6h1v1h-1z" shape-rendering="crispEdges" style="fill:#3d3440;opacity:255"/><path d="M25 6h1v1h-1z" shape-rendering="crispEdges" style="fill:#3c3540;opacity:255"/><path d="M26 6h1v1h-1zM36 6h1v1h-1z" shape-rendering="crispEdges" style="fill:#3c3440;opacity:255"/><path d="M37 6h1v1h-1z" shape-rendering="crispEdges" style="fill:#3c3540;opacity:255"/><path d="M38 6h1v1h-1z" shape-rendering="crispEdges" style="fill:#3c3440;opacity:255"/><path d="M39 6h1v1h-1zM40 6h1v1h-1zM41 6h1v1h-1zM42 6h1v1h-1zM43 6h1v1h-1zM44 6h1v1h-1z" shape-rendering="crispEdges" style="fill:#696a6a;opacity:255"/><path d="M45 6h1v1h-1zM46 6h1v1h-1z" shape-rendering="crispEdges" style="fill:#f5b0dc;opacity:255"/><path d="M47 6h1v1h-1z" shape-rendering="crispEdges" style="fill:#f5b0dd;opacity:255"/><path d="M48 6h1v1h-1zM49 6h1v1h-1zM50 6h1v1h-1zM12 7h1v1h-1zM13 7h1v1h-1zM14 7h1v1h-1z" shape-rendering="crispEdges" style="fill:#3c3440;opacity:255"/><path d="M15 7h1v1h-1zM16 7h1v1h-1zM17 7h1v1h-1z" shape-rendering="crispEdges" style="fill:#f5b0dc;opacity:255"/><path d="M18 7h1v1h-1z" shape-rendering="crispEdges" style="fill:#686a6a;opacity:255"/><path d="M19 7h1v1h-1zM20 7h1v1h-1zM21 7h1v1h-1zM22 7h1v1h-1zM23 7h1v1h-1z" shape-rendering="crispEdges" style="fill:#696a6a;opacity:255"/><path d="M24 7h1v1h-1zM25 7h1v1h-1zM26 7h1v1h-1zM36 7h1v1h-1zM37 7h1v1h-1zM38 7h1v1h-1z" shape-rendering="crispEdges" style="fill:#3c3440;opacity:255"/><path d="M39 7h1v1h-1zM40 7h1v1h-1zM41 7h1v1h-1zM42 7h1v1h-1zM43 7h1v1h-1zM44 7h1v1h-1z" shape-rendering="crispEdges" style="fill:#696a6a;opacity:255"/><path d="M45 7h1v1h-1zM46 7h1v1h-1zM47 7h1v1h-1z" shape-rendering="crispEdges" style="fill:#f5b0dc;opacity:255"/><path d="M48 7h1v1h-1z" shape-rendering="crispEdges" style="fill:#3d3440;opacity:255"/><path d="M49 7h1v1h-1zM50 7h1v1h-1zM12 8h1v1h-1zM13 8h1v1h-1zM14 8h1v1h-1z" shape-rendering="crispEdges" style="fill:#3c3440;opacity:255"/><path d="M15 8h1v1h-1zM16 8h1v1h-1zM17 8h1v1h-1z" shape-rendering="crispEdges" style="fill:#f5b0dc;opacity:255"/><path d="M18 8h1v1h-1zM19 8h1v1h-1z" shape-rendering="crispEdges" style="fill:#696a6a;opacity:255"/><path d="M20 8h1v1h-1z" shape-rendering="crispEdges" style="fill:#696a6b;opacity:255"/><path d="M21 8h1v1h-1zM22 8h1v1h-1zM23 8h1v1h-1z" shape-rendering="crispEdges" style="fill:#696a6a;opacity:255"/><path d="M24 8h1v1h-1z" shape-rendering="crispEdges" style="fill:#3c3440;opacity:255"/><path d="M25 8h1v1h-1z" shape-rendering="crispEdges" style="fill:#3c3540;opacity:255"/><path d="M26 8h1v1h-1zM36 8h1v1h-1zM37 8h1v1h-1zM38 8h1v1h-1z" shape-rendering="crispEdges" style="fill:#3c3440;opacity:255"/><path d="M39 8h1v1h-1zM40 8h1v1h-1zM41 8h1v1h-1zM42 8h1v1h-1zM43 8h1v1h-1zM44 8h1v1h-1z" shape-rendering="crispEdges" style="fill:#696a6a;opacity:255"/><path d="M45 8h1v1h-1zM46 8h1v1h-1zM47 8h1v1h-1z" shape-rendering="crispEdges" style="fill:#f5b0dc;opacity:255"/><path d="M48 8h1v1h-1zM49 8h1v1h-1zM50 8h1v1h-1zM9 9h1v1H9zM10 9h1v1h-1zM11 9h1v1h-1z" shape-rendering="crispEdges" style="fill:#3c3440;opacity:255"/><path d="M12 9h1v1h-1zM13 9h1v1h-1zM14 9h1v1h-1z" shape-rendering="crispEdges" style="fill:#696a6a;opacity:255"/><path d="M15 9h1v1h-1zM16 9h1v1h-1zM17 9h1v1h-1zM18 9h1v1h-1zM19 9h1v1h-1zM20 9h1v1h-1z" shape-rendering="crispEdges" style="fill:#f5b0dc;opacity:255"/><path d="M21 9h1v1h-1zM22 9h1v1h-1zM23 9h1v1h-1z" shape-rendering="crispEdges" style="fill:#696a6a;opacity:255"/><path d="M24 9h1v1h-1z" shape-rendering="crispEdges" style="fill:#535454;opacity:255"/><path d="M25 9h1v1h-1zM26 9h1v1h-1z" shape-rendering="crispEdges" style="fill:#525454;opacity:255"/><path d="M27 9h1v1h-1zM28 9h1v1h-1zM29 9h1v1h-1zM30 9h1v1h-1zM31 9h1v1h-1zM32 9h1v1h-1zM33 9h1v1h-1zM34 9h1v1h-1zM35 9h1v1h-1z" shape-rendering="crispEdges" style="fill:#3c3440;opacity:255"/><path d="M36 9h1v1h-1zM37 9h1v1h-1zM38 9h1v1h-1z" shape-rendering="crispEdges" style="fill:#525454;opacity:255"/><path d="M39 9h1v1h-1zM40 9h1v1h-1zM41 9h1v1h-1z" shape-rendering="crispEdges" style="fill:#696a6a;opacity:255"/><path d="M42 9h1v1h-1zM43 9h1v1h-1zM44 9h1v1h-1zM45 9h1v1h-1zM46 9h1v1h-1zM47 9h1v1h-1z" shape-rendering="crispEdges" style="fill:#f5b0dc;opacity:255"/><path d="M48 9h1v1h-1zM49 9h1v1h-1zM50 9h1v1h-1z" shape-rendering="crispEdges" style="fill:#696a6a;opacity:255"/><path d="M51 9h1v1h-1zM52 9h1v1h-1zM53 9h1v1h-1zM9 10h1v1H9zM10 10h1v1h-1zM11 10h1v1h-1z" shape-rendering="crispEdges" style="fill:#3c3440;opacity:255"/><path d="M12 10h1v1h-1zM13 10h1v1h-1zM14 10h1v1h-1z" shape-rendering="crispEdges" style="fill:#696a6a;opacity:255"/><path d="M15 10h1v1h-1zM16 10h1v1h-1zM17 10h1v1h-1zM18 10h1v1h-1zM19 10h1v1h-1z" shape-rendering="crispEdges" style="fill:#f5b0dc;opacity:255"/><path d="M20 10h1v1h-1z" shape-rendering="crispEdges" style="fill:#f5b0dd;opacity:255"/><path d="M21 10h1v1h-1zM22 10h1v1h-1zM23 10h1v1h-1z" shape-rendering="crispEdges" style="fill:#696a6a;opacity:255"/><path d="M24 10h1v1h-1zM25 10h1v1h-1zM26 10h1v1h-1z" shape-rendering="crispEdges" style="fill:#525454;opacity:255"/><path d="M27 10h1v1h-1z" shape-rendering="crispEdges" style="fill:#3c3440;opacity:255"/><path d="M28 10h1v1h-1z" shape-rendering="crispEdges" style="fill:#3c3540;opacity:255"/><path d="M29 10h1v1h-1zM30 10h1v1h-1zM31 10h1v1h-1zM32 10h1v1h-1zM33 10h1v1h-1zM34 10h1v1h-1zM35 10h1v1h-1z" shape-rendering="crispEdges" style="fill:#3c3440;opacity:255"/><path d="M36 10h1v1h-1zM37 10h1v1h-1zM38 10h1v1h-1z" shape-rendering="crispEdges" style="fill:#525454;opacity:255"/><path d="M39 10h1v1h-1zM40 10h1v1h-1zM41 10h1v1h-1z" shape-rendering="crispEdges" style="fill:#696a6a;opacity:255"/><path d="M42 10h1v1h-1zM43 10h1v1h-1zM44 10h1v1h-1zM45 10h1v1h-1zM46 10h1v1h-1zM47 10h1v1h-1z" shape-rendering="crispEdges" style="fill:#f5b0dc;opacity:255"/><path d="M48 10h1v1h-1zM49 10h1v1h-1zM50 10h1v1h-1z" shape-rendering="crispEdges" style="fill:#696a6a;opacity:255"/><path d="M51 10h1v1h-1zM52 10h1v1h-1zM53 10h1v1h-1zM9 11h1v1H9zM10 11h1v1h-1zM11 11h1v1h-1z" shape-rendering="crispEdges" style="fill:#3c3440;opacity:255"/><path d="M12 11h1v1h-1zM13 11h1v1h-1zM14 11h1v1h-1z" shape-rendering="crispEdges" style="fill:#696a6a;opacity:255"/><path d="M15 11h1v1h-1zM16 11h1v1h-1zM17 11h1v1h-1zM18 11h1v1h-1z" shape-rendering="crispEdges" style="fill:#f5b0dc;opacity:255"/><path d="M19 11h1v1h-1z" shape-rendering="crispEdges" style="fill:#f5b1dc;opacity:255"/><path d="M20 11h1v1h-1z" shape-rendering="crispEdges" style="fill:#f5b0dc;opacity:255"/><path d="M21 11h1v1h-1zM22 11h1v1h-1zM23 11h1v1h-1z" shape-rendering="crispEdges" style="fill:#696a6a;opacity:255"/><path d="M24 11h1v1h-1zM25 11h1v1h-1zM26 11h1v1h-1z" shape-rendering="crispEdges" style="fill:#525454;opacity:255"/><path d="M27 11h1v1h-1zM28 11h1v1h-1zM29 11h1v1h-1zM30 11h1v1h-1zM31 11h1v1h-1zM32 11h1v1h-1zM33 11h1v1h-1zM34 11h1v1h-1zM35 11h1v1h-1z" shape-rendering="crispEdges" style="fill:#3c3440;opacity:255"/><path d="M36 11h1v1h-1zM37 11h1v1h-1zM38 11h1v1h-1z" shape-rendering="crispEdges" style="fill:#525454;opacity:255"/><path d="M39 11h1v1h-1zM40 11h1v1h-1zM41 11h1v1h-1z" shape-rendering="crispEdges" style="fill:#696a6a;opacity:255"/><path d="M42 11h1v1h-1zM43 11h1v1h-1zM44 11h1v1h-1zM45 11h1v1h-1zM46 11h1v1h-1zM47 11h1v1h-1z" shape-rendering="crispEdges" style="fill:#f5b0dc;opacity:255"/><path d="M48 11h1v1h-1z" shape-rendering="crispEdges" style="fill:#686a6a;opacity:255"/><path d="M49 11h1v1h-1z" shape-rendering="crispEdges" style="fill:#696a6a;opacity:255"/><path d="M50 11h1v1h-1z" shape-rendering="crispEdges" style="fill:#696a6b;opacity:255"/><path d="M51 11h1v1h-1zM52 11h1v1h-1zM53 11h1v1h-1zM9 12h1v1H9zM10 12h1v1h-1zM11 12h1v1h-1z" shape-rendering="crispEdges" style="fill:#3c3440;opacity:255"/><path d="M12 12h1v1h-1zM13 12h1v1h-1zM14 12h1v1h-1zM15 12h1v1h-1zM16 12h1v1h-1zM17 12h1v1h-1zM18 12h1v1h-1zM19 12h1v1h-1zM20 12h1v1h-1zM21 12h1v1h-1zM22 12h1v1h-1zM23 12h1v1h-1z" shape-rendering="crispEdges" style="fill:#696a6a;opacity:255"/><path d="M24 12h1v1h-1z" shape-rendering="crispEdges" style="fill:#525454;opacity:255"/><path d="M25 12h1v1h-1z" shape-rendering="crispEdges" style="fill:#525554;opacity:255"/><path d="M26 12h1v1h-1z" shape-rendering="crispEdges" style="fill:#525454;opacity:255"/><path d="M27 12h1v1h-1zM28 12h1v1h-1zM29 12h1v1h-1z" shape-rendering="crispEdges" style="fill:#696a6a;opacity:255"/><path d="M30 12h1v1h-1zM31 12h1v1h-1zM32 12h1v1h-1z" shape-rendering="crispEdges" style="fill:#525454;opacity:255"/><path d="M33 12h1v1h-1zM34 12h1v1h-1zM35 12h1v1h-1z" shape-rendering="crispEdges" style="fill:#696a6a;opacity:255"/><path d="M36 12h1v1h-1zM37 12h1v1h-1z" shape-rendering="crispEdges" style="fill:#525454;opacity:255"/><path d="M38 12h1v1h-1z" shape-rendering="crispEdges" style="fill:#525455;opacity:255"/><path d="M39 12h1v1h-1zM40 12h1v1h-1zM41 12h1v1h-1zM42 12h1v1h-1zM43 12h1v1h-1zM44 12h1v1h-1zM45 12h1v1h-1zM46 12h1v1h-1zM47 12h1v1h-1z" shape-rendering="crispEdges" style="fill:#696a6a;opacity:255"/><path d="M48 12h1v1h-1z" shape-rendering="crispEdges" style="fill:#686a6a;opacity:255"/><path d="M49 12h1v1h-1zM50 12h1v1h-1z" shape-rendering="crispEdges" style="fill:#696a6a;opacity:255"/><path d="M51 12h1v1h-1z" shape-rendering="crispEdges" style="fill:#3c3440;opacity:255"/><path d="M52 12h1v1h-1z" shape-rendering="crispEdges" style="fill:#3c3540;opacity:255"/><path d="M53 12h1v1h-1zM9 13h1v1H9zM10 13h1v1h-1zM11 13h1v1h-1z" shape-rendering="crispEdges" style="fill:#3c3440;opacity:255"/><path d="M12 13h1v1h-1zM13 13h1v1h-1zM14 13h1v1h-1z" shape-rendering="crispEdges" style="fill:#696a6a;opacity:255"/><path d="M15 13h1v1h-1z" shape-rendering="crispEdges" style="fill:#686a6a;opacity:255"/><path d="M16 13h1v1h-1zM17 13h1v1h-1zM18 13h1v1h-1zM19 13h1v1h-1zM20 13h1v1h-1zM21 13h1v1h-1zM22 13h1v1h-1zM23 13h1v1h-1z" shape-rendering="crispEdges" style="fill:#696a6a;opacity:255"/><path d="M24 13h1v1h-1zM25 13h1v1h-1zM26 13h1v1h-1z" shape-rendering="crispEdges" style="fill:#525454;opacity:255"/><path d="M27 13h1v1h-1zM28 13h1v1h-1zM29 13h1v1h-1z" shape-rendering="crispEdges" style="fill:#696a6a;opacity:255"/><path d="M30 13h1v1h-1zM31 13h1v1h-1zM32 13h1v1h-1z" shape-rendering="crispEdges" style="fill:#525454;opacity:255"/><path d="M33 13h1v1h-1zM34 13h1v1h-1z" shape-rendering="crispEdges" style="fill:#696a6a;opacity:255"/><path d="M35 13h1v1h-1z" shape-rendering="crispEdges" style="fill:#696a6b;opacity:255"/><path d="M36 13h1v1h-1zM37 13h1v1h-1zM38 13h1v1h-1z" shape-rendering="crispEdges" style="fill:#525454;opacity:255"/><path d="M39 13h1v1h-1zM40 13h1v1h-1zM41 13h1v1h-1zM42 13h1v1h-1zM43 13h1v1h-1zM44 13h1v1h-1zM45 13h1v1h-1zM46 13h1v1h-1zM47 13h1v1h-1zM48 13h1v1h-1zM49 13h1v1h-1zM50 13h1v1h-1z" shape-rendering="crispEdges" style="fill:#696a6a;opacity:255"/><path d="M51 13h1v1h-1zM52 13h1v1h-1zM53 13h1v1h-1zM9 14h1v1H9zM10 14h1v1h-1zM11 14h1v1h-1z" shape-rendering="crispEdges" style="fill:#3c3440;opacity:255"/><path d="M12 14h1v1h-1zM13 14h1v1h-1zM14 14h1v1h-1zM15 14h1v1h-1zM16 14h1v1h-1zM17 14h1v1h-1zM18 14h1v1h-1zM19 14h1v1h-1zM20 14h1v1h-1zM21 14h1v1h-1zM22 14h1v1h-1zM23 14h1v1h-1z" shape-rendering="crispEdges" style="fill:#696a6a;opacity:255"/><path d="M24 14h1v1h-1z" shape-rendering="crispEdges" style="fill:#525454;opacity:255"/><path d="M25 14h1v1h-1z" shape-rendering="crispEdges" style="fill:#525554;opacity:255"/><path d="M26 14h1v1h-1z" shape-rendering="crispEdges" style="fill:#525454;opacity:255"/><path d="M27 14h1v1h-1z" shape-rendering="crispEdges" style="fill:#696a6a;opacity:255"/><path d="M28 14h1v1h-1z" shape-rendering="crispEdges" style="fill:#696b6a;opacity:255"/><path d="M29 14h1v1h-1z" shape-rendering="crispEdges" style="fill:#696a6a;opacity:255"/><path d="M30 14h1v1h-1zM31 14h1v1h-1zM32 14h1v1h-1z" shape-rendering="crispEdges" style="fill:#525454;opacity:255"/><path d="M33 14h1v1h-1zM34 14h1v1h-1zM35 14h1v1h-1z" shape-rendering="crispEdges" style="fill:#696a6a;opacity:255"/><path d="M36 14h1v1h-1zM37 14h1v1h-1zM38 14h1v1h-1z" shape-rendering="crispEdges" style="fill:#525454;opacity:255"/><path d="M39 14h1v1h-1zM40 14h1v1h-1zM41 14h1v1h-1zM42 14h1v1h-1zM43 14h1v1h-1zM44 14h1v1h-1z" shape-rendering="crispEdges" style="fill:#696a6a;opacity:255"/><path d="M45 14h1v1h-1z" shape-rendering="crispEdges" style="fill:#686a6a;opacity:255"/><path d="M46 14h1v1h-1zM47 14h1v1h-1zM48 14h1v1h-1zM49 14h1v1h-1zM50 14h1v1h-1z" shape-rendering="crispEdges" style="fill:#696a6a;opacity:255"/><path d="M51 14h1v1h-1zM52 14h1v1h-1zM53 14h1v1h-1zM6 15h1v1H6zM7 15h1v1H7zM8 15h1v1H8z" shape-rendering="crispEdges" style="fill:#3c3440;opacity:255"/><path d="M9 15h1v1H9zM10 15h1v1h-1zM11 15h1v1h-1zM12 15h1v1h-1zM13 15h1v1h-1zM14 15h1v1h-1z" shape-rendering="crispEdges" style="fill:#696a6a;opacity:255"/><path d="M15 15h1v1h-1z" shape-rendering="crispEdges" style="fill:#686a6a;opacity:255"/><path d="M16 15h1v1h-1zM17 15h1v1h-1zM18 15h1v1h-1zM19 15h1v1h-1zM20 15h1v1h-1zM21 15h1v1h-1zM22 15h1v1h-1zM23 15h1v1h-1zM24 15h1v1h-1zM25 15h1v1h-1zM26 15h1v1h-1zM27 15h1v1h-1zM28 15h1v1h-1zM29 15h1v1h-1z" shape-rendering="crispEdges" style="fill:#696a6a;opacity:255"/><path d="M30 15h1v1h-1zM31 15h1v1h-1zM32 15h1v1h-1z" shape-rendering="crispEdges" style="fill:#525454;opacity:255"/><path d="M33 15h1v1h-1zM34 15h1v1h-1zM35 15h1v1h-1zM36 15h1v1h-1zM37 15h1v1h-1zM38 15h1v1h-1zM39 15h1v1h-1z" shape-rendering="crispEdges" style="fill:#696a6a;opacity:255"/><path d="M40 15h1v1h-1z" shape-rendering="crispEdges" style="fill:#696b6a;opacity:255"/><path d="M41 15h1v1h-1zM42 15h1v1h-1zM43 15h1v1h-1zM44 15h1v1h-1zM45 15h1v1h-1zM46 15h1v1h-1zM47 15h1v1h-1zM48 15h1v1h-1zM49 15h1v1h-1zM50 15h1v1h-1zM51 15h1v1h-1zM52 15h1v1h-1zM53 15h1v1h-1z" shape-rendering="crispEdges" style="fill:#696a6a;opacity:255"/><path d="M54 15h1v1h-1zM55 15h1v1h-1zM56 15h1v1h-1zM6 16h1v1H6zM7 16h1v1H7zM8 16h1v1H8z" shape-rendering="crispEdges" style="fill:#3c3440;opacity:255"/><path d="M9 16h1v1H9zM10 16h1v1h-1zM11 16h1v1h-1zM12 16h1v1h-1zM13 16h1v1h-1zM14 16h1v1h-1zM15 16h1v1h-1zM16 16h1v1h-1z" shape-rendering="crispEdges" style="fill:#696a6a;opacity:255"/><path d="M17 16h1v1h-1z" shape-rendering="crispEdges" style="fill:#696a6b;opacity:255"/><path d="M18 16h1v1h-1z" shape-rendering="crispEdges" style="fill:#686a6a;opacity:255"/><path d="M19 16h1v1h-1zM20 16h1v1h-1zM21 16h1v1h-1zM22 16h1v1h-1z" shape-rendering="crispEdges" style="fill:#696a6a;opacity:255"/><path d="M23 16h1v1h-1z" shape-rendering="crispEdges" style="fill:#696a6b;opacity:255"/><path d="M24 16h1v1h-1zM25 16h1v1h-1zM26 16h1v1h-1zM27 16h1v1h-1zM28 16h1v1h-1z" shape-rendering="crispEdges" style="fill:#696a6a;opacity:255"/><path d="M29 16h1v1h-1z" shape-rendering="crispEdges" style="fill:#696a6b;opacity:255"/><path d="M30 16h1v1h-1zM31 16h1v1h-1zM32 16h1v1h-1z" shape-rendering="crispEdges" style="fill:#525454;opacity:255"/><path d="M33 16h1v1h-1zM34 16h1v1h-1zM35 16h1v1h-1zM36 16h1v1h-1zM37 16h1v1h-1zM38 16h1v1h-1zM39 16h1v1h-1zM40 16h1v1h-1zM41 16h1v1h-1zM42 16h1v1h-1zM43 16h1v1h-1z" shape-rendering="crispEdges" style="fill:#696a6a;opacity:255"/><path d="M44 16h1v1h-1z" shape-rendering="crispEdges" style="fill:#696a6b;opacity:255"/><path d="M45 16h1v1h-1z" shape-rendering="crispEdges" style="fill:#686a6a;opacity:255"/><path d="M46 16h1v1h-1zM47 16h1v1h-1zM48 16h1v1h-1zM49 16h1v1h-1zM50 16h1v1h-1zM51 16h1v1h-1z" shape-rendering="crispEdges" style="fill:#696a6a;opacity:255"/><path d="M52 16h1v1h-1z" shape-rendering="crispEdges" style="fill:#696b6a;opacity:255"/><path d="M53 16h1v1h-1z" shape-rendering="crispEdges" style="fill:#696a6a;opacity:255"/><path d="M54 16h1v1h-1zM55 16h1v1h-1zM56 16h1v1h-1zM6 17h1v1H6zM7 17h1v1H7zM8 17h1v1H8z" shape-rendering="crispEdges" style="fill:#3c3440;opacity:255"/><path d="M9 17h1v1H9zM10 17h1v1h-1zM11 17h1v1h-1zM12 17h1v1h-1zM13 17h1v1h-1zM14 17h1v1h-1zM15 17h1v1h-1zM16 17h1v1h-1zM17 17h1v1h-1zM18 17h1v1h-1zM19 17h1v1h-1zM20 17h1v1h-1zM21 17h1v1h-1zM22 17h1v1h-1zM23 17h1v1h-1zM24 17h1v1h-1zM25 17h1v1h-1zM26 17h1v1h-1zM27 17h1v1h-1zM28 17h1v1h-1zM29 17h1v1h-1z" shape-rendering="crispEdges" style="fill:#696a6a;opacity:255"/><path d="M30 17h1v1h-1zM31 17h1v1h-1zM32 17h1v1h-1z" shape-rendering="crispEdges" style="fill:#525454;opacity:255"/><path d="M33 17h1v1h-1zM34 17h1v1h-1zM35 17h1v1h-1zM36 17h1v1h-1zM37 17h1v1h-1zM38 17h1v1h-1zM39 17h1v1h-1zM40 17h1v1h-1zM41 17h1v1h-1z" shape-rendering="crispEdges" style="fill:#696a6a;opacity:255"/><path d="M42 17h1v1h-1z" shape-rendering="crispEdges" style="fill:#686a6a;opacity:255"/><path d="M43 17h1v1h-1zM44 17h1v1h-1zM45 17h1v1h-1zM46 17h1v1h-1zM47 17h1v1h-1zM48 17h1v1h-1zM49 17h1v1h-1zM50 17h1v1h-1zM51 17h1v1h-1zM52 17h1v1h-1zM53 17h1v1h-1z" shape-rendering="crispEdges" style="fill:#696a6a;opacity:255"/><path d="M54 17h1v1h-1z" shape-rendering="crispEdges" style="fill:#3d3440;opacity:255"/><path d="M55 17h1v1h-1zM56 17h1v1h-1zM6 18h1v1H6zM7 18h1v1H7zM8 18h1v1H8z" shape-rendering="crispEdges" style="fill:#3c3440;opacity:255"/><path d="M9 18h1v1H9zM10 18h1v1h-1zM11 18h1v1h-1z" shape-rendering="crispEdges" style="fill:#525454;opacity:255"/><path d="M12 18h1v1h-1zM13 18h1v1h-1zM14 18h1v1h-1zM15 18h1v1h-1zM16 18h1v1h-1zM17 18h1v1h-1zM18 18h1v1h-1zM19 18h1v1h-1zM20 18h1v1h-1zM21 18h1v1h-1zM22 18h1v1h-1zM23 18h1v1h-1zM24 18h1v1h-1zM25 18h1v1h-1zM26 18h1v1h-1zM27 18h1v1h-1zM28 18h1v1h-1zM29 18h1v1h-1zM30 18h1v1h-1zM31 18h1v1h-1zM32 18h1v1h-1zM33 18h1v1h-1zM34 18h1v1h-1zM35 18h1v1h-1zM36 18h1v1h-1zM37 18h1v1h-1zM38 18h1v1h-1zM39 18h1v1h-1zM40 18h1v1h-1zM41 18h1v1h-1zM42 18h1v1h-1zM43 18h1v1h-1zM44 18h1v1h-1z" shape-rendering="crispEdges" style="fill:#696a6a;opacity:255"/><path d="M45 18h1v1h-1z" shape-rendering="crispEdges" style="fill:#686a6a;opacity:255"/><path d="M46 18h1v1h-1zM47 18h1v1h-1zM48 18h1v1h-1zM49 18h1v1h-1zM50 18h1v1h-1z" shape-rendering="crispEdges" style="fill:#696a6a;opacity:255"/><path d="M51 18h1v1h-1zM52 18h1v1h-1z" shape-rendering="crispEdges" style="fill:#525454;opacity:255"/><path d="M53 18h1v1h-1z" shape-rendering="crispEdges" style="fill:#525455;opacity:255"/><path d="M54 18h1v1h-1zM55 18h1v1h-1zM56 18h1v1h-1z" shape-rendering="crispEdges" style="fill:#3c3440;opacity:255"/><path d="M6 19h1v1H6z" shape-rendering="crispEdges" style="fill:#3d3440;opacity:255"/><path d="M7 19h1v1H7zM8 19h1v1H8z" shape-rendering="crispEdges" style="fill:#3c3440;opacity:255"/><path d="M9 19h1v1H9zM10 19h1v1h-1zM11 19h1v1h-1z" shape-rendering="crispEdges" style="fill:#525454;opacity:255"/><path d="M12 19h1v1h-1z" shape-rendering="crispEdges" style="fill:#696a6a;opacity:255"/><path d="M13 19h1v1h-1z" shape-rendering="crispEdges" style="fill:#696b6a;opacity:255"/><path d="M14 19h1v1h-1zM15 19h1v1h-1zM16 19h1v1h-1zM17 19h1v1h-1zM18 19h1v1h-1zM19 19h1v1h-1zM20 19h1v1h-1zM21 19h1v1h-1zM22 19h1v1h-1zM23 19h1v1h-1zM24 19h1v1h-1zM25 19h1v1h-1zM26 19h1v1h-1zM27 19h1v1h-1zM28 19h1v1h-1zM29 19h1v1h-1zM30 19h1v1h-1zM31 19h1v1h-1zM32 19h1v1h-1zM33 19h1v1h-1zM34 19h1v1h-1z" shape-rendering="crispEdges" style="fill:#696a6a;opacity:255"/><path d="M35 19h1v1h-1z" shape-rendering="crispEdges" style="fill:#696a6b;opacity:255"/><path d="M36 19h1v1h-1zM37 19h1v1h-1zM38 19h1v1h-1zM39 19h1v1h-1zM40 19h1v1h-1zM41 19h1v1h-1zM42 19h1v1h-1zM43 19h1v1h-1zM44 19h1v1h-1zM45 19h1v1h-1zM46 19h1v1h-1zM47 19h1v1h-1zM48 19h1v1h-1zM49 19h1v1h-1zM50 19h1v1h-1z" shape-rendering="crispEdges" style="fill:#696a6a;opacity:255"/><path d="M51 19h1v1h-1z" shape-rendering="crispEdges" style="fill:#535454;opacity:255"/><path d="M52 19h1v1h-1zM53 19h1v1h-1z" shape-rendering="crispEdges" style="fill:#525454;opacity:255"/><path d="M54 19h1v1h-1zM55 19h1v1h-1zM56 19h1v1h-1zM6 20h1v1H6zM7 20h1v1H7zM8 20h1v1H8z" shape-rendering="crispEdges" style="fill:#3c3440;opacity:255"/><path d="M9 20h1v1H9zM10 20h1v1h-1z" shape-rendering="crispEdges" style="fill:#525454;opacity:255"/><path d="M11 20h1v1h-1z" shape-rendering="crispEdges" style="fill:#525455;opacity:255"/><path d="M12 20h1v1h-1zM13 20h1v1h-1zM14 20h1v1h-1zM15 20h1v1h-1zM16 20h1v1h-1zM17 20h1v1h-1zM18 20h1v1h-1zM19 20h1v1h-1z" shape-rendering="crispEdges" style="fill:#696a6a;opacity:255"/><path d="M20 20h1v1h-1z" shape-rendering="crispEdges" style="fill:#696a6b;opacity:255"/><path d="M21 20h1v1h-1zM22 20h1v1h-1zM23 20h1v1h-1zM24 20h1v1h-1zM25 20h1v1h-1zM26 20h1v1h-1zM27 20h1v1h-1zM28 20h1v1h-1zM29 20h1v1h-1zM30 20h1v1h-1zM31 20h1v1h-1zM32 20h1v1h-1zM33 20h1v1h-1zM34 20h1v1h-1zM35 20h1v1h-1zM36 20h1v1h-1zM37 20h1v1h-1zM38 20h1v1h-1zM39 20h1v1h-1zM40 20h1v1h-1zM41 20h1v1h-1zM42 20h1v1h-1zM43 20h1v1h-1zM44 20h1v1h-1zM45 20h1v1h-1zM46 20h1v1h-1zM47 20h1v1h-1zM48 20h1v1h-1zM49 20h1v1h-1zM50 20h1v1h-1z" shape-rendering="crispEdges" style="fill:#696a6a;opacity:255"/><path d="M51 20h1v1h-1zM52 20h1v1h-1zM53 20h1v1h-1z" shape-rendering="crispEdges" style="fill:#525454;opacity:255"/><path d="M54 20h1v1h-1z" shape-rendering="crispEdges" style="fill:#3c3440;opacity:255"/><path d="M55 20h1v1h-1z" shape-rendering="crispEdges" style="fill:#3c3540;opacity:255"/><path d="M56 20h1v1h-1zM3 21h1v1H3zM4 21h1v1H4zM5 21h1v1H5z" shape-rendering="crispEdges" style="fill:#3c3440;opacity:255"/><path d="M6 21h1v1H6zM7 21h1v1H7zM8 21h1v1H8zM9 21h1v1H9zM10 21h1v1h-1zM11 21h1v1h-1z" shape-rendering="crispEdges" style="fill:#696a6a;opacity:255"/><path d="M12 21h1v1h-1zM13 21h1v1h-1zM14 21h1v1h-1z" shape-rendering="crispEdges" style="fill:#525454;opacity:255"/><path d="M15 21h1v1h-1zM16 21h1v1h-1zM17 21h1v1h-1z" shape-rendering="crispEdges" style="fill:#696a6a;opacity:255"/><path d="M18 21h1v1h-1z" shape-rendering="crispEdges" style="fill:#686a6a;opacity:255"/><path d="M19 21h1v1h-1zM20 21h1v1h-1zM21 21h1v1h-1zM22 21h1v1h-1zM23 21h1v1h-1zM24 21h1v1h-1zM25 21h1v1h-1zM26 21h1v1h-1zM27 21h1v1h-1zM28 21h1v1h-1zM29 21h1v1h-1z" shape-rendering="crispEdges" style="fill:#696a6a;opacity:255"/><path d="M30 21h1v1h-1zM31 21h1v1h-1zM32 21h1v1h-1z" shape-rendering="crispEdges" style="fill:#fff;opacity:255"/><path d="M33 21h1v1h-1zM34 21h1v1h-1zM35 21h1v1h-1zM36 21h1v1h-1zM37 21h1v1h-1zM38 21h1v1h-1zM39 21h1v1h-1zM40 21h1v1h-1zM41 21h1v1h-1zM42 21h1v1h-1zM43 21h1v1h-1zM44 21h1v1h-1z" shape-rendering="crispEdges" style="fill:#696a6a;opacity:255"/><path d="M45 21h1v1h-1z" shape-rendering="crispEdges" style="fill:#686a6a;opacity:255"/><path d="M46 21h1v1h-1zM47 21h1v1h-1z" shape-rendering="crispEdges" style="fill:#696a6a;opacity:255"/><path d="M48 21h1v1h-1zM49 21h1v1h-1zM50 21h1v1h-1z" shape-rendering="crispEdges" style="fill:#525454;opacity:255"/><path d="M51 21h1v1h-1zM52 21h1v1h-1zM53 21h1v1h-1zM54 21h1v1h-1zM55 21h1v1h-1zM56 21h1v1h-1z" shape-rendering="crispEdges" style="fill:#696a6a;opacity:255"/><path d="M57 21h1v1h-1zM58 21h1v1h-1z" shape-rendering="crispEdges" style="fill:#3c3440;opacity:255"/><path d="M59 21h1v1h-1z" shape-rendering="crispEdges" style="fill:#3c3441;opacity:255"/><path d="M3 22h1v1H3z" shape-rendering="crispEdges" style="fill:#3d3440;opacity:255"/><path d="M4 22h1v1H4zM5 22h1v1H5z" shape-rendering="crispEdges" style="fill:#3c3440;opacity:255"/><path d="M6 22h1v1H6z" shape-rendering="crispEdges" style="fill:#696a6a;opacity:255"/><path d="M7 22h1v1H7z" shape-rendering="crispEdges" style="fill:#696b6a;opacity:255"/><path d="M8 22h1v1H8zM9 22h1v1H9zM10 22h1v1h-1zM11 22h1v1h-1z" shape-rendering="crispEdges" style="fill:#696a6a;opacity:255"/><path d="M12 22h1v1h-1zM13 22h1v1h-1zM14 22h1v1h-1z" shape-rendering="crispEdges" style="fill:#525454;opacity:255"/><path d="M15 22h1v1h-1zM16 22h1v1h-1zM17 22h1v1h-1zM18 22h1v1h-1zM19 22h1v1h-1zM20 22h1v1h-1zM21 22h1v1h-1zM22 22h1v1h-1zM23 22h1v1h-1zM24 22h1v1h-1zM25 22h1v1h-1z" shape-rendering="crispEdges" style="fill:#696a6a;opacity:255"/><path d="M26 22h1v1h-1z" shape-rendering="crispEdges" style="fill:#696a6b;opacity:255"/><path d="M27 22h1v1h-1z" shape-rendering="crispEdges" style="fill:#686a6a;opacity:255"/><path d="M28 22h1v1h-1zM29 22h1v1h-1z" shape-rendering="crispEdges" style="fill:#696a6a;opacity:255"/><path d="M30 22h1v1h-1zM31 22h1v1h-1zM32 22h1v1h-1z" shape-rendering="crispEdges" style="fill:#fff;opacity:255"/><path d="M33 22h1v1h-1z" shape-rendering="crispEdges" style="fill:#696a6a;opacity:255"/><path d="M34 22h1v1h-1z" shape-rendering="crispEdges" style="fill:#696b6a;opacity:255"/><path d="M35 22h1v1h-1z" shape-rendering="crispEdges" style="fill:#696a6b;opacity:255"/><path d="M36 22h1v1h-1zM37 22h1v1h-1z" shape-rendering="crispEdges" style="fill:#696a6a;opacity:255"/><path d="M38 22h1v1h-1z" shape-rendering="crispEdges" style="fill:#696a6b;opacity:255"/><path d="M39 22h1v1h-1zM40 22h1v1h-1zM41 22h1v1h-1zM42 22h1v1h-1zM43 22h1v1h-1zM44 22h1v1h-1zM45 22h1v1h-1zM46 22h1v1h-1zM47 22h1v1h-1z" shape-rendering="crispEdges" style="fill:#696a6a;opacity:255"/><path d="M48 22h1v1h-1zM49 22h1v1h-1zM50 22h1v1h-1z" shape-rendering="crispEdges" style="fill:#525454;opacity:255"/><path d="M51 22h1v1h-1z" shape-rendering="crispEdges" style="fill:#696a6a;opacity:255"/><path d="M52 22h1v1h-1z" shape-rendering="crispEdges" style="fill:#696b6a;opacity:255"/><path d="M53 22h1v1h-1zM54 22h1v1h-1zM55 22h1v1h-1zM56 22h1v1h-1z" shape-rendering="crispEdges" style="fill:#696a6a;opacity:255"/><path d="M57 22h1v1h-1zM58 22h1v1h-1zM59 22h1v1h-1zM3 23h1v1H3zM4 23h1v1H4zM5 23h1v1H5z" shape-rendering="crispEdges" style="fill:#3c3440;opacity:255"/><path d="M6 23h1v1H6zM7 23h1v1H7zM8 23h1v1H8zM9 23h1v1H9zM10 23h1v1h-1zM11 23h1v1h-1z" shape-rendering="crispEdges" style="fill:#696a6a;opacity:255"/><path d="M12 23h1v1h-1zM13 23h1v1h-1zM14 23h1v1h-1z" shape-rendering="crispEdges" style="fill:#525454;opacity:255"/><path d="M15 23h1v1h-1zM16 23h1v1h-1z" shape-rendering="crispEdges" style="fill:#696a6a;opacity:255"/><path d="M17 23h1v1h-1z" shape-rendering="crispEdges" style="fill:#696a6b;opacity:255"/><path d="M18 23h1v1h-1zM19 23h1v1h-1zM20 23h1v1h-1zM21 23h1v1h-1z" shape-rendering="crispEdges" style="fill:#696a6a;opacity:255"/><path d="M22 23h1v1h-1z" shape-rendering="crispEdges" style="fill:#696b6a;opacity:255"/><path d="M23 23h1v1h-1zM24 23h1v1h-1zM25 23h1v1h-1zM26 23h1v1h-1zM27 23h1v1h-1zM28 23h1v1h-1z" shape-rendering="crispEdges" style="fill:#696a6a;opacity:255"/><path d="M29 23h1v1h-1z" shape-rendering="crispEdges" style="fill:#696a6b;opacity:255"/><path d="M30 23h1v1h-1z" shape-rendering="crispEdges" style="fill:#feffff;opacity:255"/><path d="M31 23h1v1h-1z" shape-rendering="crispEdges" style="fill:#fff;opacity:255"/><path d="M32 23h1v1h-1z" shape-rendering="crispEdges" style="fill:#fffffe;opacity:255"/><path d="M33 23h1v1h-1zM34 23h1v1h-1zM35 23h1v1h-1zM36 23h1v1h-1zM37 23h1v1h-1zM38 23h1v1h-1z" shape-rendering="crispEdges" style="fill:#696a6a;opacity:255"/><path d="M39 23h1v1h-1z" shape-rendering="crispEdges" style="fill:#686a6a;opacity:255"/><path d="M40 23h1v1h-1z" shape-rendering="crispEdges" style="fill:#696a6a;opacity:255"/><path d="M41 23h1v1h-1z" shape-rendering="crispEdges" style="fill:#696a6b;opacity:255"/><path d="M42 23h1v1h-1zM43 23h1v1h-1zM44 23h1v1h-1zM45 23h1v1h-1zM46 23h1v1h-1zM47 23h1v1h-1z" shape-rendering="crispEdges" style="fill:#696a6a;opacity:255"/><path d="M48 23h1v1h-1zM49 23h1v1h-1zM50 23h1v1h-1z" shape-rendering="crispEdges" style="fill:#525454;opacity:255"/><path d="M51 23h1v1h-1zM52 23h1v1h-1zM53 23h1v1h-1zM54 23h1v1h-1zM55 23h1v1h-1z" shape-rendering="crispEdges" style="fill:#696a6a;opacity:255"/><path d="M56 23h1v1h-1z" shape-rendering="crispEdges" style="fill:#696a6b;opacity:255"/><path d="M57 23h1v1h-1zM58 23h1v1h-1zM59 23h1v1h-1zM0 24h1v1H0zM1 24h1v1H1z" shape-rendering="crispEdges" style="fill:#3c3440;opacity:255"/><path d="M2 24h1v1H2z" shape-rendering="crispEdges" style="fill:#3c3441;opacity:255"/><path d="M3 24h1v1H3zM4 24h1v1H4zM5 24h1v1H5zM6 24h1v1H6zM7 24h1v1H7zM8 24h1v1H8z" shape-rendering="crispEdges" style="fill:#3c3440;opacity:255"/><path d="M9 24h1v1H9zM10 24h1v1h-1z" shape-rendering="crispEdges" style="fill:#525454;opacity:255"/><path d="M11 24h1v1h-1z" shape-rendering="crispEdges" style="fill:#525455;opacity:255"/><path d="M12 24h1v1h-1zM13 24h1v1h-1zM14 24h1v1h-1zM15 24h1v1h-1zM16 24h1v1h-1zM17 24h1v1h-1z" shape-rendering="crispEdges" style="fill:#696a6a;opacity:255"/><path d="M18 24h1v1h-1zM19 24h1v1h-1zM20 24h1v1h-1z" shape-rendering="crispEdges" style="fill:#99e550;opacity:255"/><path d="M21 24h1v1h-1zM22 24h1v1h-1zM23 24h1v1h-1z" shape-rendering="crispEdges" style="fill:#3c3440;opacity:255"/><path d="M24 24h1v1h-1zM25 24h1v1h-1zM26 24h1v1h-1z" shape-rendering="crispEdges" style="fill:#696a6a;opacity:255"/><path d="M27 24h1v1h-1zM28 24h1v1h-1zM29 24h1v1h-1zM30 24h1v1h-1zM31 24h1v1h-1zM32 24h1v1h-1zM33 24h1v1h-1zM34 24h1v1h-1z" shape-rendering="crispEdges" style="fill:#fff;opacity:255"/><path d="M35 24h1v1h-1z" shape-rendering="crispEdges" style="fill:#fffffe;opacity:255"/><path d="M36 24h1v1h-1zM37 24h1v1h-1zM38 24h1v1h-1z" shape-rendering="crispEdges" style="fill:#696a6a;opacity:255"/><path d="M39 24h1v1h-1zM40 24h1v1h-1zM41 24h1v1h-1z" shape-rendering="crispEdges" style="fill:#3c3440;opacity:255"/><path d="M42 24h1v1h-1zM43 24h1v1h-1zM44 24h1v1h-1z" shape-rendering="crispEdges" style="fill:#99e550;opacity:255"/><path d="M45 24h1v1h-1z" shape-rendering="crispEdges" style="fill:#686a6a;opacity:255"/><path d="M46 24h1v1h-1zM47 24h1v1h-1zM48 24h1v1h-1zM49 24h1v1h-1z" shape-rendering="crispEdges" style="fill:#696a6a;opacity:255"/><path d="M50 24h1v1h-1z" shape-rendering="crispEdges" style="fill:#696a6b;opacity:255"/><path d="M51 24h1v1h-1zM52 24h1v1h-1zM53 24h1v1h-1z" shape-rendering="crispEdges" style="fill:#525454;opacity:255"/><path d="M54 24h1v1h-1zM55 24h1v1h-1zM56 24h1v1h-1z" shape-rendering="crispEdges" style="fill:#3c3440;opacity:255"/><path d="M57 24h1v1h-1z" shape-rendering="crispEdges" style="fill:#3d3440;opacity:255"/><path d="M58 24h1v1h-1zM59 24h1v1h-1zM60 24h1v1h-1zM61 24h1v1h-1z" shape-rendering="crispEdges" style="fill:#3c3440;opacity:255"/><path d="M62 24h1v1h-1z" shape-rendering="crispEdges" style="fill:#3c3441;opacity:255"/><path d="M0 25h1v1H0zM1 25h1v1H1zM2 25h1v1H2zM3 25h1v1H3zM4 25h1v1H4zM5 25h1v1H5zM6 25h1v1H6z" shape-rendering="crispEdges" style="fill:#3c3440;opacity:255"/><path d="M7 25h1v1H7z" shape-rendering="crispEdges" style="fill:#3c3540;opacity:255"/><path d="M8 25h1v1H8z" shape-rendering="crispEdges" style="fill:#3c3440;opacity:255"/><path d="M9 25h1v1H9zM10 25h1v1h-1z" shape-rendering="crispEdges" style="fill:#525454;opacity:255"/><path d="M11 25h1v1h-1z" shape-rendering="crispEdges" style="fill:#525455;opacity:255"/><path d="M12 25h1v1h-1zM13 25h1v1h-1z" shape-rendering="crispEdges" style="fill:#696a6a;opacity:255"/><path d="M14 25h1v1h-1z" shape-rendering="crispEdges" style="fill:#696a6b;opacity:255"/><path d="M15 25h1v1h-1zM16 25h1v1h-1zM17 25h1v1h-1z" shape-rendering="crispEdges" style="fill:#696a6a;opacity:255"/><path d="M18 25h1v1h-1zM19 25h1v1h-1zM20 25h1v1h-1z" shape-rendering="crispEdges" style="fill:#99e550;opacity:255"/><path d="M21 25h1v1h-1zM22 25h1v1h-1zM23 25h1v1h-1z" shape-rendering="crispEdges" style="fill:#3c3440;opacity:255"/><path d="M24 25h1v1h-1zM25 25h1v1h-1zM26 25h1v1h-1z" shape-rendering="crispEdges" style="fill:#696a6a;opacity:255"/><path d="M27 25h1v1h-1zM28 25h1v1h-1zM29 25h1v1h-1zM30 25h1v1h-1zM31 25h1v1h-1zM32 25h1v1h-1zM33 25h1v1h-1zM34 25h1v1h-1zM35 25h1v1h-1z" shape-rendering="crispEdges" style="fill:#fff;opacity:255"/><path d="M36 25h1v1h-1zM37 25h1v1h-1zM38 25h1v1h-1z" shape-rendering="crispEdges" style="fill:#696a6a;opacity:255"/><path d="M39 25h1v1h-1zM40 25h1v1h-1zM41 25h1v1h-1z" shape-rendering="crispEdges" style="fill:#3c3440;opacity:255"/><path d="M42 25h1v1h-1zM43 25h1v1h-1zM44 25h1v1h-1z" shape-rendering="crispEdges" style="fill:#99e550;opacity:255"/><path d="M45 25h1v1h-1z" shape-rendering="crispEdges" style="fill:#686a6a;opacity:255"/><path d="M46 25h1v1h-1zM47 25h1v1h-1zM48 25h1v1h-1zM49 25h1v1h-1z" shape-rendering="crispEdges" style="fill:#696a6a;opacity:255"/><path d="M50 25h1v1h-1z" shape-rendering="crispEdges" style="fill:#696a6b;opacity:255"/><path d="M51 25h1v1h-1zM52 25h1v1h-1zM53 25h1v1h-1z" shape-rendering="crispEdges" style="fill:#525454;opacity:255"/><path d="M54 25h1v1h-1z" shape-rendering="crispEdges" style="fill:#3c3440;opacity:255"/><path d="M55 25h1v1h-1z" shape-rendering="crispEdges" style="fill:#3c3540;opacity:255"/><path d="M56 25h1v1h-1zM57 25h1v1h-1zM58 25h1v1h-1zM59 25h1v1h-1zM60 25h1v1h-1zM61 25h1v1h-1zM62 25h1v1h-1zM0 26h1v1H0zM1 26h1v1H1zM2 26h1v1H2zM3 26h1v1H3z" shape-rendering="crispEdges" style="fill:#3c3440;opacity:255"/><path d="M4 26h1v1H4z" shape-rendering="crispEdges" style="fill:#3c3540;opacity:255"/><path d="M5 26h1v1H5zM6 26h1v1H6zM7 26h1v1H7zM8 26h1v1H8z" shape-rendering="crispEdges" style="fill:#3c3440;opacity:255"/><path d="M9 26h1v1H9z" shape-rendering="crispEdges" style="fill:#535454;opacity:255"/><path d="M10 26h1v1h-1z" shape-rendering="crispEdges" style="fill:#525454;opacity:255"/><path d="M11 26h1v1h-1z" shape-rendering="crispEdges" style="fill:#525455;opacity:255"/><path d="M12 26h1v1h-1zM13 26h1v1h-1zM14 26h1v1h-1zM15 26h1v1h-1zM16 26h1v1h-1zM17 26h1v1h-1z" shape-rendering="crispEdges" style="fill:#696a6a;opacity:255"/><path d="M18 26h1v1h-1zM19 26h1v1h-1zM20 26h1v1h-1z" shape-rendering="crispEdges" style="fill:#99e550;opacity:255"/><path d="M21 26h1v1h-1z" shape-rendering="crispEdges" style="fill:#3d3440;opacity:255"/><path d="M22 26h1v1h-1zM23 26h1v1h-1z" shape-rendering="crispEdges" style="fill:#3c3440;opacity:255"/><path d="M24 26h1v1h-1zM25 26h1v1h-1zM26 26h1v1h-1z" shape-rendering="crispEdges" style="fill:#696a6a;opacity:255"/><path d="M27 26h1v1h-1z" shape-rendering="crispEdges" style="fill:#fff;opacity:255"/><path d="M28 26h1v1h-1z" shape-rendering="crispEdges" style="fill:#fffeff;opacity:255"/><path d="M29 26h1v1h-1zM30 26h1v1h-1zM31 26h1v1h-1zM32 26h1v1h-1zM33 26h1v1h-1zM34 26h1v1h-1zM35 26h1v1h-1z" shape-rendering="crispEdges" style="fill:#fff;opacity:255"/><path d="M36 26h1v1h-1z" shape-rendering="crispEdges" style="fill:#696a6a;opacity:255"/><path d="M37 26h1v1h-1z" shape-rendering="crispEdges" style="fill:#696b6a;opacity:255"/><path d="M38 26h1v1h-1z" shape-rendering="crispEdges" style="fill:#696a6a;opacity:255"/><path d="M39 26h1v1h-1zM40 26h1v1h-1zM41 26h1v1h-1z" shape-rendering="crispEdges" style="fill:#3c3440;opacity:255"/><path d="M42 26h1v1h-1zM43 26h1v1h-1zM44 26h1v1h-1z" shape-rendering="crispEdges" style="fill:#99e550;opacity:255"/><path d="M45 26h1v1h-1zM46 26h1v1h-1zM47 26h1v1h-1zM48 26h1v1h-1z" shape-rendering="crispEdges" style="fill:#696a6a;opacity:255"/><path d="M49 26h1v1h-1z" shape-rendering="crispEdges" style="fill:#696b6a;opacity:255"/><path d="M50 26h1v1h-1z" shape-rendering="crispEdges" style="fill:#696a6a;opacity:255"/><path d="M51 26h1v1h-1zM52 26h1v1h-1zM53 26h1v1h-1z" shape-rendering="crispEdges" style="fill:#525454;opacity:255"/><path d="M54 26h1v1h-1zM55 26h1v1h-1zM56 26h1v1h-1zM57 26h1v1h-1zM58 26h1v1h-1zM59 26h1v1h-1zM60 26h1v1h-1zM61 26h1v1h-1zM62 26h1v1h-1z" shape-rendering="crispEdges" style="fill:#3c3440;opacity:255"/><path d="M3 27h1v1H3z" shape-rendering="crispEdges" style="fill:#3d3440;opacity:255"/><path d="M4 27h1v1H4zM5 27h1v1H5z" shape-rendering="crispEdges" style="fill:#3c3440;opacity:255"/><path d="M6 27h1v1H6zM7 27h1v1H7z" shape-rendering="crispEdges" style="fill:#fff;opacity:255"/><path d="M8 27h1v1H8z" shape-rendering="crispEdges" style="fill:#fffffe;opacity:255"/><path d="M9 27h1v1H9zM10 27h1v1h-1zM11 27h1v1h-1zM12 27h1v1h-1zM13 27h1v1h-1zM14 27h1v1h-1zM15 27h1v1h-1zM16 27h1v1h-1zM17 27h1v1h-1z" shape-rendering="crispEdges" style="fill:#696a6a;opacity:255"/><path d="M18 27h1v1h-1zM19 27h1v1h-1zM20 27h1v1h-1z" shape-rendering="crispEdges" style="fill:#99e550;opacity:255"/><path d="M21 27h1v1h-1zM22 27h1v1h-1zM23 27h1v1h-1z" shape-rendering="crispEdges" style="fill:#3c3440;opacity:255"/><path d="M24 27h1v1h-1zM25 27h1v1h-1z" shape-rendering="crispEdges" style="fill:#fff;opacity:255"/><path d="M26 27h1v1h-1z" shape-rendering="crispEdges" style="fill:#fffffe;opacity:255"/><path d="M27 27h1v1h-1zM28 27h1v1h-1zM29 27h1v1h-1zM30 27h1v1h-1zM31 27h1v1h-1zM32 27h1v1h-1zM33 27h1v1h-1zM34 27h1v1h-1zM35 27h1v1h-1zM36 27h1v1h-1zM37 27h1v1h-1zM38 27h1v1h-1z" shape-rendering="crispEdges" style="fill:#fff;opacity:255"/><path d="M39 27h1v1h-1zM40 27h1v1h-1z" shape-rendering="crispEdges" style="fill:#3c3440;opacity:255"/><path d="M41 27h1v1h-1z" shape-rendering="crispEdges" style="fill:#3c3441;opacity:255"/><path d="M42 27h1v1h-1zM43 27h1v1h-1zM44 27h1v1h-1z" shape-rendering="crispEdges" style="fill:#99e550;opacity:255"/><path d="M45 27h1v1h-1zM46 27h1v1h-1zM47 27h1v1h-1zM48 27h1v1h-1zM49 27h1v1h-1zM50 27h1v1h-1zM51 27h1v1h-1zM52 27h1v1h-1zM53 27h1v1h-1z" shape-rendering="crispEdges" style="fill:#696a6a;opacity:255"/><path d="M54 27h1v1h-1zM55 27h1v1h-1zM56 27h1v1h-1z" shape-rendering="crispEdges" style="fill:#fff;opacity:255"/><path d="M57 27h1v1h-1z" shape-rendering="crispEdges" style="fill:#3c3440;opacity:255"/><path d="M58 27h1v1h-1z" shape-rendering="crispEdges" style="fill:#3c3540;opacity:255"/><path d="M59 27h1v1h-1zM3 28h1v1H3zM4 28h1v1H4zM5 28h1v1H5z" shape-rendering="crispEdges" style="fill:#3c3440;opacity:255"/><path d="M6 28h1v1H6zM7 28h1v1H7zM8 28h1v1H8z" shape-rendering="crispEdges" style="fill:#fff;opacity:255"/><path d="M9 28h1v1H9zM10 28h1v1h-1zM11 28h1v1h-1zM12 28h1v1h-1zM13 28h1v1h-1zM14 28h1v1h-1zM15 28h1v1h-1zM16 28h1v1h-1zM17 28h1v1h-1z" shape-rendering="crispEdges" style="fill:#696a6a;opacity:255"/><path d="M18 28h1v1h-1zM19 28h1v1h-1zM20 28h1v1h-1z" shape-rendering="crispEdges" style="fill:#99e550;opacity:255"/><path d="M21 28h1v1h-1zM22 28h1v1h-1z" shape-rendering="crispEdges" style="fill:#3c3440;opacity:255"/><path d="M23 28h1v1h-1z" shape-rendering="crispEdges" style="fill:#3c3441;opacity:255"/><path d="M24 28h1v1h-1zM25 28h1v1h-1zM26 28h1v1h-1zM27 28h1v1h-1zM28 28h1v1h-1zM29 28h1v1h-1zM30 28h1v1h-1z" shape-rendering="crispEdges" style="fill:#fff;opacity:255"/><path d="M31 28h1v1h-1z" shape-rendering="crispEdges" style="fill:#fffeff;opacity:255"/><path d="M32 28h1v1h-1zM33 28h1v1h-1zM34 28h1v1h-1zM35 28h1v1h-1zM36 28h1v1h-1zM37 28h1v1h-1zM38 28h1v1h-1z" shape-rendering="crispEdges" style="fill:#fff;opacity:255"/><path d="M39 28h1v1h-1z" shape-rendering="crispEdges" style="fill:#3d3440;opacity:255"/><path d="M40 28h1v1h-1zM41 28h1v1h-1z" shape-rendering="crispEdges" style="fill:#3c3440;opacity:255"/><path d="M42 28h1v1h-1zM43 28h1v1h-1zM44 28h1v1h-1z" shape-rendering="crispEdges" style="fill:#99e550;opacity:255"/><path d="M45 28h1v1h-1zM46 28h1v1h-1zM47 28h1v1h-1zM48 28h1v1h-1zM49 28h1v1h-1z" shape-rendering="crispEdges" style="fill:#696a6a;opacity:255"/><path d="M50 28h1v1h-1z" shape-rendering="crispEdges" style="fill:#696a6b;opacity:255"/><path d="M51 28h1v1h-1zM52 28h1v1h-1zM53 28h1v1h-1z" shape-rendering="crispEdges" style="fill:#696a6a;opacity:255"/><path d="M54 28h1v1h-1zM55 28h1v1h-1zM56 28h1v1h-1z" shape-rendering="crispEdges" style="fill:#fff;opacity:255"/><path d="M57 28h1v1h-1z" shape-rendering="crispEdges" style="fill:#3c3440;opacity:255"/><path d="M58 28h1v1h-1z" shape-rendering="crispEdges" style="fill:#3c3540;opacity:255"/><path d="M59 28h1v1h-1zM3 29h1v1H3zM4 29h1v1H4zM5 29h1v1H5z" shape-rendering="crispEdges" style="fill:#3c3440;opacity:255"/><path d="M6 29h1v1H6zM7 29h1v1H7zM8 29h1v1H8z" shape-rendering="crispEdges" style="fill:#fff;opacity:255"/><path d="M9 29h1v1H9zM10 29h1v1h-1zM11 29h1v1h-1zM12 29h1v1h-1zM13 29h1v1h-1zM14 29h1v1h-1zM15 29h1v1h-1zM16 29h1v1h-1zM17 29h1v1h-1z" shape-rendering="crispEdges" style="fill:#696a6a;opacity:255"/><path d="M18 29h1v1h-1zM19 29h1v1h-1zM20 29h1v1h-1z" shape-rendering="crispEdges" style="fill:#99e550;opacity:255"/><path d="M21 29h1v1h-1zM22 29h1v1h-1zM23 29h1v1h-1z" shape-rendering="crispEdges" style="fill:#3c3440;opacity:255"/><path d="M24 29h1v1h-1zM25 29h1v1h-1zM26 29h1v1h-1zM27 29h1v1h-1zM28 29h1v1h-1zM29 29h1v1h-1zM30 29h1v1h-1zM31 29h1v1h-1zM32 29h1v1h-1zM33 29h1v1h-1zM34 29h1v1h-1z" shape-rendering="crispEdges" style="fill:#fff;opacity:255"/><path d="M35 29h1v1h-1z" shape-rendering="crispEdges" style="fill:#fffffe;opacity:255"/><path d="M36 29h1v1h-1zM37 29h1v1h-1zM38 29h1v1h-1z" shape-rendering="crispEdges" style="fill:#fff;opacity:255"/><path d="M39 29h1v1h-1zM40 29h1v1h-1zM41 29h1v1h-1z" shape-rendering="crispEdges" style="fill:#3c3440;opacity:255"/><path d="M42 29h1v1h-1zM43 29h1v1h-1zM44 29h1v1h-1z" shape-rendering="crispEdges" style="fill:#99e550;opacity:255"/><path d="M45 29h1v1h-1z" shape-rendering="crispEdges" style="fill:#686a6a;opacity:255"/><path d="M46 29h1v1h-1zM47 29h1v1h-1zM48 29h1v1h-1zM49 29h1v1h-1zM50 29h1v1h-1zM51 29h1v1h-1zM52 29h1v1h-1zM53 29h1v1h-1z" shape-rendering="crispEdges" style="fill:#696a6a;opacity:255"/><path d="M54 29h1v1h-1z" shape-rendering="crispEdges" style="fill:#fff;opacity:255"/><path d="M55 29h1v1h-1z" shape-rendering="crispEdges" style="fill:#fffeff;opacity:255"/><path d="M56 29h1v1h-1z" shape-rendering="crispEdges" style="fill:#fff;opacity:255"/><path d="M57 29h1v1h-1zM58 29h1v1h-1zM59 29h1v1h-1zM0 30h1v1H0zM1 30h1v1H1zM2 30h1v1H2zM3 30h1v1H3zM4 30h1v1H4zM5 30h1v1H5z" shape-rendering="crispEdges" style="fill:#3c3440;opacity:255"/><path d="M6 30h1v1H6z" shape-rendering="crispEdges" style="fill:#3d3440;opacity:255"/><path d="M7 30h1v1H7z" shape-rendering="crispEdges" style="fill:#3c3540;opacity:255"/><path d="M8 30h1v1H8z" shape-rendering="crispEdges" style="fill:#3c3440;opacity:255"/><path d="M9 30h1v1H9zM10 30h1v1h-1zM11 30h1v1h-1zM12 30h1v1h-1zM13 30h1v1h-1zM14 30h1v1h-1z" shape-rendering="crispEdges" style="fill:#fff;opacity:255"/><path d="M15 30h1v1h-1zM16 30h1v1h-1zM17 30h1v1h-1zM18 30h1v1h-1zM19 30h1v1h-1z" shape-rendering="crispEdges" style="fill:#f5b0dc;opacity:255"/><path d="M20 30h1v1h-1z" shape-rendering="crispEdges" style="fill:#f5b0dd;opacity:255"/><path d="M21 30h1v1h-1zM22 30h1v1h-1zM23 30h1v1h-1z" shape-rendering="crispEdges" style="fill:#99e550;opacity:255"/><path d="M24 30h1v1h-1zM25 30h1v1h-1zM26 30h1v1h-1zM27 30h1v1h-1zM28 30h1v1h-1z" shape-rendering="crispEdges" style="fill:#fff;opacity:255"/><path d="M29 30h1v1h-1z" shape-rendering="crispEdges" style="fill:#fffffe;opacity:255"/><path d="M30 30h1v1h-1zM31 30h1v1h-1zM32 30h1v1h-1z" shape-rendering="crispEdges" style="fill:#3c3440;opacity:255"/><path d="M33 30h1v1h-1zM34 30h1v1h-1z" shape-rendering="crispEdges" style="fill:#fff;opacity:255"/><path d="M35 30h1v1h-1z" shape-rendering="crispEdges" style="fill:#fffffe;opacity:255"/><path d="M36 30h1v1h-1z" shape-rendering="crispEdges" style="fill:#fff;opacity:255"/><path d="M37 30h1v1h-1z" shape-rendering="crispEdges" style="fill:#fffeff;opacity:255"/><path d="M38 30h1v1h-1z" shape-rendering="crispEdges" style="fill:#fff;opacity:255"/><path d="M39 30h1v1h-1z" shape-rendering="crispEdges" style="fill:#99e550;opacity:255"/><path d="M40 30h1v1h-1z" shape-rendering="crispEdges" style="fill:#99e450;opacity:255"/><path d="M41 30h1v1h-1z" shape-rendering="crispEdges" style="fill:#99e550;opacity:255"/><path d="M42 30h1v1h-1zM43 30h1v1h-1zM44 30h1v1h-1zM45 30h1v1h-1zM46 30h1v1h-1zM47 30h1v1h-1z" shape-rendering="crispEdges" style="fill:#f5b0dc;opacity:255"/><path d="M48 30h1v1h-1zM49 30h1v1h-1zM50 30h1v1h-1zM51 30h1v1h-1zM52 30h1v1h-1zM53 30h1v1h-1z" shape-rendering="crispEdges" style="fill:#fff;opacity:255"/><path d="M54 30h1v1h-1zM55 30h1v1h-1zM56 30h1v1h-1zM57 30h1v1h-1zM58 30h1v1h-1zM59 30h1v1h-1zM60 30h1v1h-1z" shape-rendering="crispEdges" style="fill:#3c3440;opacity:255"/><path d="M61 30h1v1h-1z" shape-rendering="crispEdges" style="fill:#3c3540;opacity:255"/><path d="M62 30h1v1h-1zM0 31h1v1H0zM1 31h1v1H1zM2 31h1v1H2zM3 31h1v1H3z" shape-rendering="crispEdges" style="fill:#3c3440;opacity:255"/><path d="M4 31h1v1H4z" shape-rendering="crispEdges" style="fill:#3c3540;opacity:255"/><path d="M5 31h1v1H5zM6 31h1v1H6zM7 31h1v1H7zM8 31h1v1H8z" shape-rendering="crispEdges" style="fill:#3c3440;opacity:255"/><path d="M9 31h1v1H9zM10 31h1v1h-1zM11 31h1v1h-1z" shape-rendering="crispEdges" style="fill:#fff;opacity:255"/><path d="M12 31h1v1h-1z" shape-rendering="crispEdges" style="fill:#feffff;opacity:255"/><path d="M13 31h1v1h-1zM14 31h1v1h-1z" shape-rendering="crispEdges" style="fill:#fff;opacity:255"/><path d="M15 31h1v1h-1z" shape-rendering="crispEdges" style="fill:#f5b0dc;opacity:255"/><path d="M16 31h1v1h-1z" shape-rendering="crispEdges" style="fill:#f5b1dc;opacity:255"/><path d="M17 31h1v1h-1zM18 31h1v1h-1zM19 31h1v1h-1zM20 31h1v1h-1z" shape-rendering="crispEdges" style="fill:#f5b0dc;opacity:255"/><path d="M21 31h1v1h-1zM22 31h1v1h-1zM23 31h1v1h-1z" shape-rendering="crispEdges" style="fill:#99e550;opacity:255"/><path d="M24 31h1v1h-1zM25 31h1v1h-1zM26 31h1v1h-1z" shape-rendering="crispEdges" style="fill:#fff;opacity:255"/><path d="M27 31h1v1h-1z" shape-rendering="crispEdges" style="fill:#feffff;opacity:255"/><path d="M28 31h1v1h-1zM29 31h1v1h-1z" shape-rendering="crispEdges" style="fill:#fff;opacity:255"/><path d="M30 31h1v1h-1zM31 31h1v1h-1z" shape-rendering="crispEdges" style="fill:#3c3440;opacity:255"/><path d="M32 31h1v1h-1z" shape-rendering="crispEdges" style="fill:#3c3441;opacity:255"/><path d="M33 31h1v1h-1zM34 31h1v1h-1zM35 31h1v1h-1zM36 31h1v1h-1zM37 31h1v1h-1zM38 31h1v1h-1z" shape-rendering="crispEdges" style="fill:#fff;opacity:255"/><path d="M39 31h1v1h-1zM40 31h1v1h-1zM41 31h1v1h-1z" shape-rendering="crispEdges" style="fill:#99e550;opacity:255"/><path d="M42 31h1v1h-1zM43 31h1v1h-1zM44 31h1v1h-1zM45 31h1v1h-1zM46 31h1v1h-1zM47 31h1v1h-1z" shape-rendering="crispEdges" style="fill:#f5b0dc;opacity:255"/><path d="M48 31h1v1h-1zM49 31h1v1h-1zM50 31h1v1h-1z" shape-rendering="crispEdges" style="fill:#fff;opacity:255"/><path d="M51 31h1v1h-1z" shape-rendering="crispEdges" style="fill:#feffff;opacity:255"/><path d="M52 31h1v1h-1z" shape-rendering="crispEdges" style="fill:#fffeff;opacity:255"/><path d="M53 31h1v1h-1z" shape-rendering="crispEdges" style="fill:#fff;opacity:255"/><path d="M54 31h1v1h-1zM55 31h1v1h-1zM56 31h1v1h-1zM57 31h1v1h-1zM58 31h1v1h-1zM59 31h1v1h-1zM60 31h1v1h-1zM61 31h1v1h-1zM62 31h1v1h-1zM0 32h1v1H0zM1 32h1v1H1zM2 32h1v1H2zM3 32h1v1H3z" shape-rendering="crispEdges" style="fill:#3c3440;opacity:255"/><path d="M4 32h1v1H4z" shape-rendering="crispEdges" style="fill:#3c3540;opacity:255"/><path d="M5 32h1v1H5zM6 32h1v1H6zM7 32h1v1H7zM8 32h1v1H8z" shape-rendering="crispEdges" style="fill:#3c3440;opacity:255"/><path d="M9 32h1v1H9zM10 32h1v1h-1zM11 32h1v1h-1zM12 32h1v1h-1zM13 32h1v1h-1zM14 32h1v1h-1z" shape-rendering="crispEdges" style="fill:#fff;opacity:255"/><path d="M15 32h1v1h-1zM16 32h1v1h-1z" shape-rendering="crispEdges" style="fill:#f5b0dc;opacity:255"/><path d="M17 32h1v1h-1z" shape-rendering="crispEdges" style="fill:#f5b0dd;opacity:255"/><path d="M18 32h1v1h-1zM19 32h1v1h-1zM20 32h1v1h-1z" shape-rendering="crispEdges" style="fill:#f5b0dc;opacity:255"/><path d="M21 32h1v1h-1zM22 32h1v1h-1zM23 32h1v1h-1z" shape-rendering="crispEdges" style="fill:#99e550;opacity:255"/><path d="M24 32h1v1h-1zM25 32h1v1h-1zM26 32h1v1h-1zM27 32h1v1h-1z" shape-rendering="crispEdges" style="fill:#fff;opacity:255"/><path d="M28 32h1v1h-1z" shape-rendering="crispEdges" style="fill:#fffeff;opacity:255"/><path d="M29 32h1v1h-1z" shape-rendering="crispEdges" style="fill:#fff;opacity:255"/><path d="M30 32h1v1h-1zM31 32h1v1h-1zM32 32h1v1h-1z" shape-rendering="crispEdges" style="fill:#3c3440;opacity:255"/><path d="M33 32h1v1h-1zM34 32h1v1h-1zM35 32h1v1h-1z" shape-rendering="crispEdges" style="fill:#fff;opacity:255"/><path d="M36 32h1v1h-1z" shape-rendering="crispEdges" style="fill:#feffff;opacity:255"/><path d="M37 32h1v1h-1zM38 32h1v1h-1z" shape-rendering="crispEdges" style="fill:#fff;opacity:255"/><path d="M39 32h1v1h-1zM40 32h1v1h-1zM41 32h1v1h-1z" shape-rendering="crispEdges" style="fill:#99e550;opacity:255"/><path d="M42 32h1v1h-1z" shape-rendering="crispEdges" style="fill:#f4b0dc;opacity:255"/><path d="M43 32h1v1h-1zM44 32h1v1h-1zM45 32h1v1h-1zM46 32h1v1h-1zM47 32h1v1h-1z" shape-rendering="crispEdges" style="fill:#f5b0dc;opacity:255"/><path d="M48 32h1v1h-1zM49 32h1v1h-1zM50 32h1v1h-1zM51 32h1v1h-1zM52 32h1v1h-1zM53 32h1v1h-1z" shape-rendering="crispEdges" style="fill:#fff;opacity:255"/><path d="M54 32h1v1h-1zM55 32h1v1h-1zM56 32h1v1h-1zM57 32h1v1h-1zM58 32h1v1h-1zM59 32h1v1h-1zM60 32h1v1h-1zM61 32h1v1h-1zM62 32h1v1h-1zM3 33h1v1H3zM4 33h1v1H4zM5 33h1v1H5z" shape-rendering="crispEdges" style="fill:#3c3440;opacity:255"/><path d="M6 33h1v1H6zM7 33h1v1H7zM8 33h1v1H8zM9 33h1v1H9zM10 33h1v1h-1zM11 33h1v1h-1zM12 33h1v1h-1zM13 33h1v1h-1zM14 33h1v1h-1zM15 33h1v1h-1zM16 33h1v1h-1zM17 33h1v1h-1zM18 33h1v1h-1zM19 33h1v1h-1zM20 33h1v1h-1zM21 33h1v1h-1zM22 33h1v1h-1zM23 33h1v1h-1zM24 33h1v1h-1z" shape-rendering="crispEdges" style="fill:#fff;opacity:255"/><path d="M25 33h1v1h-1z" shape-rendering="crispEdges" style="fill:#fffeff;opacity:255"/><path d="M26 33h1v1h-1z" shape-rendering="crispEdges" style="fill:#fff;opacity:255"/><path d="M27 33h1v1h-1zM28 33h1v1h-1zM29 33h1v1h-1z" shape-rendering="crispEdges" style="fill:#3c3440;opacity:255"/><path d="M30 33h1v1h-1zM31 33h1v1h-1zM32 33h1v1h-1z" shape-rendering="crispEdges" style="fill:#fff;opacity:255"/><path d="M33 33h1v1h-1zM34 33h1v1h-1zM35 33h1v1h-1z" shape-rendering="crispEdges" style="fill:#3c3440;opacity:255"/><path d="M36 33h1v1h-1z" shape-rendering="crispEdges" style="fill:#feffff;opacity:255"/><path d="M37 33h1v1h-1z" shape-rendering="crispEdges" style="fill:#fff;opacity:255"/><path d="M38 33h1v1h-1z" shape-rendering="crispEdges" style="fill:#fffffe;opacity:255"/><path d="M39 33h1v1h-1zM40 33h1v1h-1zM41 33h1v1h-1zM42 33h1v1h-1zM43 33h1v1h-1zM44 33h1v1h-1zM45 33h1v1h-1zM46 33h1v1h-1zM47 33h1v1h-1zM48 33h1v1h-1z" shape-rendering="crispEdges" style="fill:#fff;opacity:255"/><path d="M49 33h1v1h-1z" shape-rendering="crispEdges" style="fill:#fffeff;opacity:255"/><path d="M50 33h1v1h-1zM51 33h1v1h-1zM52 33h1v1h-1zM53 33h1v1h-1zM54 33h1v1h-1zM55 33h1v1h-1zM56 33h1v1h-1z" shape-rendering="crispEdges" style="fill:#fff;opacity:255"/><path d="M57 33h1v1h-1z" shape-rendering="crispEdges" style="fill:#3d3440;opacity:255"/><path d="M58 33h1v1h-1zM59 33h1v1h-1z" shape-rendering="crispEdges" style="fill:#3c3440;opacity:255"/><path d="M3 34h1v1H3z" shape-rendering="crispEdges" style="fill:#3d3440;opacity:255"/><path d="M4 34h1v1H4zM5 34h1v1H5z" shape-rendering="crispEdges" style="fill:#3c3440;opacity:255"/><path d="M6 34h1v1H6zM7 34h1v1H7zM8 34h1v1H8zM9 34h1v1H9zM10 34h1v1h-1zM11 34h1v1h-1zM12 34h1v1h-1zM13 34h1v1h-1zM14 34h1v1h-1zM15 34h1v1h-1zM16 34h1v1h-1zM17 34h1v1h-1zM18 34h1v1h-1zM19 34h1v1h-1z" shape-rendering="crispEdges" style="fill:#fff;opacity:255"/><path d="M20 34h1v1h-1z" shape-rendering="crispEdges" style="fill:#fffffe;opacity:255"/><path d="M21 34h1v1h-1zM22 34h1v1h-1zM23 34h1v1h-1zM24 34h1v1h-1zM25 34h1v1h-1zM26 34h1v1h-1z" shape-rendering="crispEdges" style="fill:#fff;opacity:255"/><path d="M27 34h1v1h-1zM28 34h1v1h-1zM29 34h1v1h-1z" shape-rendering="crispEdges" style="fill:#3c3440;opacity:255"/><path d="M30 34h1v1h-1z" shape-rendering="crispEdges" style="fill:#fff;opacity:255"/><path d="M31 34h1v1h-1z" shape-rendering="crispEdges" style="fill:#fffeff;opacity:255"/><path d="M32 34h1v1h-1z" shape-rendering="crispEdges" style="fill:#fff;opacity:255"/><path d="M33 34h1v1h-1zM34 34h1v1h-1z" shape-rendering="crispEdges" style="fill:#3c3440;opacity:255"/><path d="M35 34h1v1h-1z" shape-rendering="crispEdges" style="fill:#3c3441;opacity:255"/><path d="M36 34h1v1h-1zM37 34h1v1h-1zM38 34h1v1h-1zM39 34h1v1h-1zM40 34h1v1h-1zM41 34h1v1h-1zM42 34h1v1h-1zM43 34h1v1h-1zM44 34h1v1h-1zM45 34h1v1h-1zM46 34h1v1h-1zM47 34h1v1h-1zM48 34h1v1h-1zM49 34h1v1h-1zM50 34h1v1h-1z" shape-rendering="crispEdges" style="fill:#fff;opacity:255"/><path d="M51 34h1v1h-1z" shape-rendering="crispEdges" style="fill:#feffff;opacity:255"/><path d="M52 34h1v1h-1z" shape-rendering="crispEdges" style="fill:#fffeff;opacity:255"/><path d="M53 34h1v1h-1zM54 34h1v1h-1zM55 34h1v1h-1zM56 34h1v1h-1z" shape-rendering="crispEdges" style="fill:#fff;opacity:255"/><path d="M57 34h1v1h-1zM58 34h1v1h-1zM59 34h1v1h-1zM3 35h1v1H3zM4 35h1v1H4zM5 35h1v1H5z" shape-rendering="crispEdges" style="fill:#3c3440;opacity:255"/><path d="M6 35h1v1H6z" shape-rendering="crispEdges" style="fill:#fff;opacity:255"/><path d="M7 35h1v1H7z" shape-rendering="crispEdges" style="fill:#fffeff;opacity:255"/><path d="M8 35h1v1H8zM9 35h1v1H9zM10 35h1v1h-1zM11 35h1v1h-1zM12 35h1v1h-1zM13 35h1v1h-1zM14 35h1v1h-1zM15 35h1v1h-1zM16 35h1v1h-1zM17 35h1v1h-1zM18 35h1v1h-1zM19 35h1v1h-1zM20 35h1v1h-1z" shape-rendering="crispEdges" style="fill:#fff;opacity:255"/><path d="M21 35h1v1h-1z" shape-rendering="crispEdges" style="fill:#feffff;opacity:255"/><path d="M22 35h1v1h-1zM23 35h1v1h-1zM24 35h1v1h-1zM25 35h1v1h-1zM26 35h1v1h-1z" shape-rendering="crispEdges" style="fill:#fff;opacity:255"/><path d="M27 35h1v1h-1zM28 35h1v1h-1zM29 35h1v1h-1z" shape-rendering="crispEdges" style="fill:#3c3440;opacity:255"/><path d="M30 35h1v1h-1zM31 35h1v1h-1zM32 35h1v1h-1z" shape-rendering="crispEdges" style="fill:#fff;opacity:255"/><path d="M33 35h1v1h-1zM34 35h1v1h-1zM35 35h1v1h-1z" shape-rendering="crispEdges" style="fill:#3c3440;opacity:255"/><path d="M36 35h1v1h-1zM37 35h1v1h-1zM38 35h1v1h-1zM39 35h1v1h-1zM40 35h1v1h-1z" shape-rendering="crispEdges" style="fill:#fff;opacity:255"/><path d="M41 35h1v1h-1z" shape-rendering="crispEdges" style="fill:#fffffe;opacity:255"/><path d="M42 35h1v1h-1zM43 35h1v1h-1zM44 35h1v1h-1zM45 35h1v1h-1zM46 35h1v1h-1zM47 35h1v1h-1z" shape-rendering="crispEdges" style="fill:#fff;opacity:255"/><path d="M48 35h1v1h-1z" shape-rendering="crispEdges" style="fill:#feffff;opacity:255"/><path d="M49 35h1v1h-1zM50 35h1v1h-1zM51 35h1v1h-1zM52 35h1v1h-1zM53 35h1v1h-1zM54 35h1v1h-1zM55 35h1v1h-1zM56 35h1v1h-1z" shape-rendering="crispEdges" style="fill:#fff;opacity:255"/><path d="M57 35h1v1h-1z" shape-rendering="crispEdges" style="fill:#3c3440;opacity:255"/><path d="M58 35h1v1h-1z" shape-rendering="crispEdges" style="fill:#3c3540;opacity:255"/><path d="M59 35h1v1h-1zM6 36h1v1H6zM7 36h1v1H7zM8 36h1v1H8z" shape-rendering="crispEdges" style="fill:#3c3440;opacity:255"/><path d="M9 36h1v1H9zM10 36h1v1h-1zM11 36h1v1h-1z" shape-rendering="crispEdges" style="fill:#fff;opacity:255"/><path d="M12 36h1v1h-1z" shape-rendering="crispEdges" style="fill:#feffff;opacity:255"/><path d="M13 36h1v1h-1zM14 36h1v1h-1zM15 36h1v1h-1zM16 36h1v1h-1zM17 36h1v1h-1zM18 36h1v1h-1zM19 36h1v1h-1zM20 36h1v1h-1z" shape-rendering="crispEdges" style="fill:#fff;opacity:255"/><path d="M21 36h1v1h-1z" shape-rendering="crispEdges" style="fill:#feffff;opacity:255"/><path d="M22 36h1v1h-1zM23 36h1v1h-1zM24 36h1v1h-1z" shape-rendering="crispEdges" style="fill:#fff;opacity:255"/><path d="M25 36h1v1h-1z" shape-rendering="crispEdges" style="fill:#fffeff;opacity:255"/><path d="M26 36h1v1h-1zM27 36h1v1h-1zM28 36h1v1h-1zM29 36h1v1h-1zM30 36h1v1h-1zM31 36h1v1h-1zM32 36h1v1h-1zM33 36h1v1h-1zM34 36h1v1h-1z" shape-rendering="crispEdges" style="fill:#fff;opacity:255"/><path d="M35 36h1v1h-1z" shape-rendering="crispEdges" style="fill:#fffffe;opacity:255"/><path d="M36 36h1v1h-1zM37 36h1v1h-1zM38 36h1v1h-1zM39 36h1v1h-1zM40 36h1v1h-1zM41 36h1v1h-1zM42 36h1v1h-1z" shape-rendering="crispEdges" style="fill:#fff;opacity:255"/><path d="M43 36h1v1h-1z" shape-rendering="crispEdges" style="fill:#fffeff;opacity:255"/><path d="M44 36h1v1h-1zM45 36h1v1h-1zM46 36h1v1h-1zM47 36h1v1h-1z" shape-rendering="crispEdges" style="fill:#fff;opacity:255"/><path d="M48 36h1v1h-1z" shape-rendering="crispEdges" style="fill:#feffff;opacity:255"/><path d="M49 36h1v1h-1zM50 36h1v1h-1z" shape-rendering="crispEdges" style="fill:#fff;opacity:255"/><path d="M51 36h1v1h-1z" shape-rendering="crispEdges" style="fill:#feffff;opacity:255"/><path d="M52 36h1v1h-1zM53 36h1v1h-1z" shape-rendering="crispEdges" style="fill:#fff;opacity:255"/><path d="M54 36h1v1h-1z" shape-rendering="crispEdges" style="fill:#3c3440;opacity:255"/><path d="M55 36h1v1h-1z" shape-rendering="crispEdges" style="fill:#3c3540;opacity:255"/><path d="M56 36h1v1h-1zM6 37h1v1H6zM7 37h1v1H7zM8 37h1v1H8z" shape-rendering="crispEdges" style="fill:#3c3440;opacity:255"/><path d="M9 37h1v1H9zM10 37h1v1h-1zM11 37h1v1h-1zM12 37h1v1h-1zM13 37h1v1h-1zM14 37h1v1h-1zM15 37h1v1h-1z" shape-rendering="crispEdges" style="fill:#fff;opacity:255"/><path d="M16 37h1v1h-1z" shape-rendering="crispEdges" style="fill:#fffeff;opacity:255"/><path d="M17 37h1v1h-1zM18 37h1v1h-1zM19 37h1v1h-1zM20 37h1v1h-1zM21 37h1v1h-1z" shape-rendering="crispEdges" style="fill:#fff;opacity:255"/><path d="M22 37h1v1h-1z" shape-rendering="crispEdges" style="fill:#fffeff;opacity:255"/><path d="M23 37h1v1h-1zM24 37h1v1h-1zM25 37h1v1h-1zM26 37h1v1h-1zM27 37h1v1h-1zM28 37h1v1h-1zM29 37h1v1h-1zM30 37h1v1h-1zM31 37h1v1h-1zM32 37h1v1h-1zM33 37h1v1h-1z" shape-rendering="crispEdges" style="fill:#fff;opacity:255"/><path d="M34 37h1v1h-1z" shape-rendering="crispEdges" style="fill:#fffeff;opacity:255"/><path d="M35 37h1v1h-1zM36 37h1v1h-1zM37 37h1v1h-1zM38 37h1v1h-1zM39 37h1v1h-1zM40 37h1v1h-1z" shape-rendering="crispEdges" style="fill:#fff;opacity:255"/><path d="M41 37h1v1h-1z" shape-rendering="crispEdges" style="fill:#fffffe;opacity:255"/><path d="M42 37h1v1h-1zM43 37h1v1h-1zM44 37h1v1h-1zM45 37h1v1h-1zM46 37h1v1h-1zM47 37h1v1h-1zM48 37h1v1h-1zM49 37h1v1h-1zM50 37h1v1h-1zM51 37h1v1h-1zM52 37h1v1h-1zM53 37h1v1h-1z" shape-rendering="crispEdges" style="fill:#fff;opacity:255"/><path d="M54 37h1v1h-1zM55 37h1v1h-1zM56 37h1v1h-1zM6 38h1v1H6zM7 38h1v1H7zM8 38h1v1H8z" shape-rendering="crispEdges" style="fill:#3c3440;opacity:255"/><path d="M9 38h1v1H9zM10 38h1v1h-1zM11 38h1v1h-1zM12 38h1v1h-1zM13 38h1v1h-1zM14 38h1v1h-1zM15 38h1v1h-1zM16 38h1v1h-1zM17 38h1v1h-1zM18 38h1v1h-1zM19 38h1v1h-1zM20 38h1v1h-1zM21 38h1v1h-1zM22 38h1v1h-1zM23 38h1v1h-1zM24 38h1v1h-1zM25 38h1v1h-1z" shape-rendering="crispEdges" style="fill:#fff;opacity:255"/><path d="M26 38h1v1h-1z" shape-rendering="crispEdges" style="fill:#fffffe;opacity:255"/><path d="M27 38h1v1h-1zM28 38h1v1h-1zM29 38h1v1h-1zM30 38h1v1h-1zM31 38h1v1h-1zM32 38h1v1h-1zM33 38h1v1h-1zM34 38h1v1h-1zM35 38h1v1h-1zM36 38h1v1h-1zM37 38h1v1h-1zM38 38h1v1h-1zM39 38h1v1h-1zM40 38h1v1h-1zM41 38h1v1h-1zM42 38h1v1h-1zM43 38h1v1h-1zM44 38h1v1h-1zM45 38h1v1h-1zM46 38h1v1h-1zM47 38h1v1h-1zM48 38h1v1h-1zM49 38h1v1h-1zM50 38h1v1h-1zM51 38h1v1h-1zM52 38h1v1h-1zM53 38h1v1h-1z" shape-rendering="crispEdges" style="fill:#fff;opacity:255"/><path d="M54 38h1v1h-1zM55 38h1v1h-1z" shape-rendering="crispEdges" style="fill:#3c3440;opacity:255"/><path d="M56 38h1v1h-1z" shape-rendering="crispEdges" style="fill:#3c3441;opacity:255"/><path d="M9 39h1v1H9zM10 39h1v1h-1zM11 39h1v1h-1zM12 39h1v1h-1zM13 39h1v1h-1zM14 39h1v1h-1z" shape-rendering="crispEdges" style="fill:#3c3440;opacity:255"/><path d="M15 39h1v1h-1zM16 39h1v1h-1zM17 39h1v1h-1zM18 39h1v1h-1zM19 39h1v1h-1zM20 39h1v1h-1zM21 39h1v1h-1zM22 39h1v1h-1zM23 39h1v1h-1zM24 39h1v1h-1zM25 39h1v1h-1zM26 39h1v1h-1zM27 39h1v1h-1z" shape-rendering="crispEdges" style="fill:#fff;opacity:255"/><path d="M28 39h1v1h-1z" shape-rendering="crispEdges" style="fill:#fffeff;opacity:255"/><path d="M29 39h1v1h-1zM30 39h1v1h-1zM31 39h1v1h-1zM32 39h1v1h-1zM33 39h1v1h-1zM34 39h1v1h-1zM35 39h1v1h-1zM36 39h1v1h-1zM37 39h1v1h-1zM38 39h1v1h-1z" shape-rendering="crispEdges" style="fill:#fff;opacity:255"/><path d="M39 39h1v1h-1z" shape-rendering="crispEdges" style="fill:#feffff;opacity:255"/><path d="M40 39h1v1h-1z" shape-rendering="crispEdges" style="fill:#fffeff;opacity:255"/><path d="M41 39h1v1h-1zM42 39h1v1h-1zM43 39h1v1h-1z" shape-rendering="crispEdges" style="fill:#fff;opacity:255"/><path d="M44 39h1v1h-1z" shape-rendering="crispEdges" style="fill:#fffffe;opacity:255"/><path d="M45 39h1v1h-1zM46 39h1v1h-1zM47 39h1v1h-1z" shape-rendering="crispEdges" style="fill:#fff;opacity:255"/><path d="M48 39h1v1h-1zM49 39h1v1h-1zM50 39h1v1h-1zM51 39h1v1h-1zM52 39h1v1h-1zM53 39h1v1h-1z" shape-rendering="crispEdges" style="fill:#3c3440;opacity:255"/><path d="M9 40h1v1H9z" shape-rendering="crispEdges" style="fill:#3d3440;opacity:255"/><path d="M10 40h1v1h-1zM11 40h1v1h-1zM12 40h1v1h-1zM13 40h1v1h-1zM14 40h1v1h-1z" shape-rendering="crispEdges" style="fill:#3c3440;opacity:255"/><path d="M15 40h1v1h-1zM16 40h1v1h-1zM17 40h1v1h-1zM18 40h1v1h-1zM19 40h1v1h-1zM20 40h1v1h-1zM21 40h1v1h-1zM22 40h1v1h-1zM23 40h1v1h-1z" shape-rendering="crispEdges" style="fill:#fff;opacity:255"/><path d="M24 40h1v1h-1z" shape-rendering="crispEdges" style="fill:#feffff;opacity:255"/><path d="M25 40h1v1h-1zM26 40h1v1h-1zM27 40h1v1h-1zM28 40h1v1h-1zM29 40h1v1h-1zM30 40h1v1h-1zM31 40h1v1h-1zM32 40h1v1h-1zM33 40h1v1h-1zM34 40h1v1h-1zM35 40h1v1h-1zM36 40h1v1h-1z" shape-rendering="crispEdges" style="fill:#fff;opacity:255"/><path d="M37 40h1v1h-1z" shape-rendering="crispEdges" style="fill:#fffeff;opacity:255"/><path d="M38 40h1v1h-1zM39 40h1v1h-1zM40 40h1v1h-1zM41 40h1v1h-1zM42 40h1v1h-1zM43 40h1v1h-1zM44 40h1v1h-1zM45 40h1v1h-1zM46 40h1v1h-1zM47 40h1v1h-1z" shape-rendering="crispEdges" style="fill:#fff;opacity:255"/><path d="M48 40h1v1h-1zM49 40h1v1h-1zM50 40h1v1h-1zM51 40h1v1h-1zM52 40h1v1h-1zM53 40h1v1h-1zM9 41h1v1H9zM10 41h1v1h-1zM11 41h1v1h-1zM12 41h1v1h-1zM13 41h1v1h-1zM14 41h1v1h-1z" shape-rendering="crispEdges" style="fill:#3c3440;opacity:255"/><path d="M15 41h1v1h-1zM16 41h1v1h-1zM17 41h1v1h-1zM18 41h1v1h-1zM19 41h1v1h-1zM20 41h1v1h-1zM21 41h1v1h-1zM22 41h1v1h-1zM23 41h1v1h-1zM24 41h1v1h-1zM25 41h1v1h-1zM26 41h1v1h-1zM27 41h1v1h-1zM28 41h1v1h-1zM29 41h1v1h-1z" shape-rendering="crispEdges" style="fill:#fff;opacity:255"/><path d="M30 41h1v1h-1z" shape-rendering="crispEdges" style="fill:#feffff;opacity:255"/><path d="M31 41h1v1h-1zM32 41h1v1h-1zM33 41h1v1h-1zM34 41h1v1h-1zM35 41h1v1h-1z" shape-rendering="crispEdges" style="fill:#fff;opacity:255"/><path d="M36 41h1v1h-1z" shape-rendering="crispEdges" style="fill:#feffff;opacity:255"/><path d="M37 41h1v1h-1zM38 41h1v1h-1zM39 41h1v1h-1zM40 41h1v1h-1zM41 41h1v1h-1zM42 41h1v1h-1zM43 41h1v1h-1zM44 41h1v1h-1zM45 41h1v1h-1zM46 41h1v1h-1z" shape-rendering="crispEdges" style="fill:#fff;opacity:255"/><path d="M47 41h1v1h-1z" shape-rendering="crispEdges" style="fill:#fffffe;opacity:255"/><path d="M48 41h1v1h-1zM49 41h1v1h-1zM50 41h1v1h-1zM51 41h1v1h-1zM52 41h1v1h-1zM53 41h1v1h-1zM15 42h1v1h-1zM16 42h1v1h-1zM17 42h1v1h-1zM18 42h1v1h-1zM19 42h1v1h-1zM20 42h1v1h-1zM21 42h1v1h-1zM22 42h1v1h-1zM23 42h1v1h-1zM24 42h1v1h-1zM25 42h1v1h-1zM26 42h1v1h-1zM27 42h1v1h-1zM28 42h1v1h-1zM29 42h1v1h-1zM30 42h1v1h-1zM31 42h1v1h-1zM32 42h1v1h-1zM33 42h1v1h-1zM34 42h1v1h-1zM35 42h1v1h-1z" shape-rendering="crispEdges" style="fill:#3c3440;opacity:255"/><path d="M36 42h1v1h-1z" shape-rendering="crispEdges" style="fill:#3d3440;opacity:255"/><path d="M37 42h1v1h-1zM38 42h1v1h-1zM39 42h1v1h-1zM40 42h1v1h-1zM41 42h1v1h-1zM42 42h1v1h-1zM43 42h1v1h-1zM44 42h1v1h-1zM45 42h1v1h-1zM46 42h1v1h-1zM47 42h1v1h-1zM15 43h1v1h-1zM16 43h1v1h-1zM17 43h1v1h-1z" shape-rendering="crispEdges" style="fill:#3c3440;opacity:255"/><path d="M18 43h1v1h-1z" shape-rendering="crispEdges" style="fill:#3d3440;opacity:255"/><path d="M19 43h1v1h-1zM20 43h1v1h-1z" shape-rendering="crispEdges" style="fill:#3c3440;opacity:255"/><path d="M21 43h1v1h-1z" shape-rendering="crispEdges" style="fill:#3d3440;opacity:255"/><path d="M22 43h1v1h-1zM23 43h1v1h-1zM24 43h1v1h-1zM25 43h1v1h-1zM26 43h1v1h-1zM27 43h1v1h-1zM28 43h1v1h-1zM29 43h1v1h-1z" shape-rendering="crispEdges" style="fill:#3c3440;opacity:255"/><path d="M30 43h1v1h-1z" shape-rendering="crispEdges" style="fill:#3d3440;opacity:255"/><path d="M31 43h1v1h-1zM32 43h1v1h-1zM33 43h1v1h-1zM34 43h1v1h-1zM35 43h1v1h-1zM36 43h1v1h-1zM37 43h1v1h-1zM38 43h1v1h-1zM39 43h1v1h-1zM40 43h1v1h-1zM41 43h1v1h-1zM42 43h1v1h-1zM43 43h1v1h-1zM44 43h1v1h-1zM45 43h1v1h-1z" shape-rendering="crispEdges" style="fill:#3c3440;opacity:255"/><path d="M46 43h1v1h-1z" shape-rendering="crispEdges" style="fill:#3c3540;opacity:255"/><path d="M47 43h1v1h-1z" shape-rendering="crispEdges" style="fill:#3c3440;opacity:255"/><path d="M15 44h1v1h-1z" shape-rendering="crispEdges" style="fill:#3d3440;opacity:255"/><path d="M16 44h1v1h-1zM17 44h1v1h-1zM18 44h1v1h-1zM19 44h1v1h-1zM20 44h1v1h-1zM21 44h1v1h-1zM22 44h1v1h-1zM23 44h1v1h-1z" shape-rendering="crispEdges" style="fill:#3c3440;opacity:255"/><path d="M24 44h1v1h-1z" shape-rendering="crispEdges" style="fill:#3d3440;opacity:255"/><path d="M25 44h1v1h-1zM26 44h1v1h-1zM27 44h1v1h-1zM28 44h1v1h-1zM29 44h1v1h-1zM30 44h1v1h-1zM31 44h1v1h-1zM32 44h1v1h-1zM33 44h1v1h-1zM34 44h1v1h-1zM35 44h1v1h-1zM36 44h1v1h-1zM37 44h1v1h-1zM38 44h1v1h-1zM39 44h1v1h-1zM40 44h1v1h-1zM41 44h1v1h-1zM42 44h1v1h-1zM43 44h1v1h-1zM44 44h1v1h-1zM45 44h1v1h-1z" shape-rendering="crispEdges" style="fill:#3c3440;opacity:255"/><path d="M46 44h1v1h-1z" shape-rendering="crispEdges" style="fill:#3c3540;opacity:255"/><path d="M47 44h1v1h-1z" shape-rendering="crispEdges" style="fill:#3c3440;opacity:255"/></svg>