<svg xmlns="http://www.w3.org/2000/svg" width="23" height="23"><path d="M6 0h1v1H6z" shape-rendering="crispEdges" style="fill:#8b3a6e;opacity:255"/><path d="M7 0h1v1H7z" shape-rendering="crispEdges" style="fill:#8b3b6e;opacity:255"/><path d="M8 0h1v1H8z" shape-rendering="crispEdges" style="fill:#8b3a6e;opacity:255"/><path d="M9 0h1v1H9z" shape-rendering="crispEdges" style="fill:#8a3b6f;opacity:255"/><path d="M10 0h1v1h-1zM11 0h1v1h-1z" shape-rendering="crispEdges" style="fill:#8b3b6e;opacity:255"/><path d="M12 0h1v1h-1z" shape-rendering="crispEdges" style="fill:#8b3a6f;opacity:255"/><path d="M13 0h1v1h-1z" shape-rendering="crispEdges" style="fill:#8b3b6e;opacity:255"/><path d="M14 0h1v1h-1zM15 0h1v1h-1zM16 0h1v1h-1z" shape-rendering="crispEdges" style="fill:#8b3a6e;opacity:255"/><path d="M17 0h1v1h-1z" shape-rendering="crispEdges" style="fill:#8a3a6e;opacity:255"/><path d="M18 0h1v1h-1z" shape-rendering="crispEdges" style="fill:#8b3a6f;opacity:255"/><path d="M19 0h1v1h-1z" shape-rendering="crispEdges" style="fill:#8b3b6e;opacity:255"/><path d="M5 1h1v1H5z" shape-rendering="crispEdges" style="fill:#8b3a6e;opacity:255"/><path d="M6 1h1v1H6z" shape-rendering="crispEdges" style="fill:#ffdaf2;opacity:255"/><path d="M7 1h1v1H7zM8 1h1v1H8z" shape-rendering="crispEdges" style="fill:#ffdbf2;opacity:255"/><path d="M9 1h1v1H9z" shape-rendering="crispEdges" style="fill:#fedbf2;opacity:255"/><path d="M10 1h1v1h-1z" shape-rendering="crispEdges" style="fill:#ffdbf2;opacity:255"/><path d="M11 1h1v1h-1z" shape-rendering="crispEdges" style="fill:#ffdbf3;opacity:255"/><path d="M12 1h1v1h-1z" shape-rendering="crispEdges" style="fill:#ffdaf2;opacity:255"/><path d="M13 1h1v1h-1z" shape-rendering="crispEdges" style="fill:#ffdbf2;opacity:255"/><path d="M14 1h1v1h-1z" shape-rendering="crispEdges" style="fill:#ffdbf3;opacity:255"/><path d="M15 1h1v1h-1zM16 1h1v1h-1z" shape-rendering="crispEdges" style="fill:#ffdbf2;opacity:255"/><path d="M17 1h1v1h-1z" shape-rendering="crispEdges" style="fill:#ffdaf3;opacity:255"/><path d="M18 1h1v1h-1z" shape-rendering="crispEdges" style="fill:#fedbf2;opacity:255"/><path d="M19 1h1v1h-1z" shape-rendering="crispEdges" style="fill:#eb89c6;opacity:255"/><path d="M20 1h1v1h-1z" shape-rendering="crispEdges" style="fill:#8b3b6e;opacity:255"/><path d="M5 2h1v1H5z" shape-rendering="crispEdges" style="fill:#8a3a6e;opacity:255"/><path d="M6 2h1v1H6z" shape-rendering="crispEdges" style="fill:#f5b1dc;opacity:255"/><path d="M7 2h1v1H7z" shape-rendering="crispEdges" style="fill:#f5b0dd;opacity:255"/><path d="M8 2h1v1H8z" shape-rendering="crispEdges" style="fill:#f5b0dc;opacity:255"/><path d="M9 2h1v1H9z" shape-rendering="crispEdges" style="fill:#f5b0dd;opacity:255"/><path d="M10 2h1v1h-1zM11 2h1v1h-1z" shape-rendering="crispEdges" style="fill:#f5b0dc;opacity:255"/><path d="M12 2h1v1h-1z" shape-rendering="crispEdges" style="fill:#f5b0dd;opacity:255"/><path d="M13 2h1v1h-1zM14 2h1v1h-1zM15 2h1v1h-1zM16 2h1v1h-1zM17 2h1v1h-1zM18 2h1v1h-1z" shape-rendering="crispEdges" style="fill:#f5b0dc;opacity:255"/><path d="M19 2h1v1h-1z" shape-rendering="crispEdges" style="fill:#ea88c7;opacity:255"/><path d="M20 2h1v1h-1zM5 3h1v1H5z" shape-rendering="crispEdges" style="fill:#8b3a6e;opacity:255"/><path d="M6 3h1v1H6z" shape-rendering="crispEdges" style="fill:#f4b0dc;opacity:255"/><path d="M7 3h1v1H7zM8 3h1v1H8z" shape-rendering="crispEdges" style="fill:#f5b0dc;opacity:255"/><path d="M9 3h1v1H9z" shape-rendering="crispEdges" style="fill:#f4b0dd;opacity:255"/><path d="M10 3h1v1h-1zM11 3h1v1h-1zM12 3h1v1h-1zM13 3h1v1h-1zM14 3h1v1h-1zM15 3h1v1h-1zM16 3h1v1h-1zM17 3h1v1h-1zM18 3h1v1h-1z" shape-rendering="crispEdges" style="fill:#f5b0dc;opacity:255"/><path d="M19 3h1v1h-1z" shape-rendering="crispEdges" style="fill:#eb88c7;opacity:255"/><path d="M20 3h1v1h-1zM5 4h1v1H5z" shape-rendering="crispEdges" style="fill:#8b3a6e;opacity:255"/><path d="M6 4h1v1H6z" shape-rendering="crispEdges" style="fill:#f5b0dd;opacity:255"/><path d="M7 4h1v1H7zM8 4h1v1H8z" shape-rendering="crispEdges" style="fill:#f5b0dc;opacity:255"/><path d="M9 4h1v1H9z" shape-rendering="crispEdges" style="fill:#8b3a6f;opacity:255"/><path d="M10 4h1v1h-1zM11 4h1v1h-1z" shape-rendering="crispEdges" style="fill:#8b3a6e;opacity:255"/><path d="M12 4h1v1h-1zM13 4h1v1h-1z" shape-rendering="crispEdges" style="fill:#8a3a6f;opacity:255"/><path d="M14 4h1v1h-1zM15 4h1v1h-1zM16 4h1v1h-1z" shape-rendering="crispEdges" style="fill:#8b3a6e;opacity:255"/><path d="M17 4h1v1h-1z" shape-rendering="crispEdges" style="fill:#f5b0dd;opacity:255"/><path d="M18 4h1v1h-1z" shape-rendering="crispEdges" style="fill:#f5b0dc;opacity:255"/><path d="M19 4h1v1h-1z" shape-rendering="crispEdges" style="fill:#eb88c7;opacity:255"/><path d="M20 4h1v1h-1zM5 5h1v1H5z" shape-rendering="crispEdges" style="fill:#8b3b6e;opacity:255"/><path d="M6 5h1v1H6z" shape-rendering="crispEdges" style="fill:#f5b0dc;opacity:255"/><path d="M7 5h1v1H7z" shape-rendering="crispEdges" style="fill:#ea89c7;opacity:255"/><path d="M8 5h1v1H8zM17 5h1v1h-1z" shape-rendering="crispEdges" style="fill:#8b3a6e;opacity:255"/><path d="M18 5h1v1h-1z" shape-rendering="crispEdges" style="fill:#f4b0dc;opacity:255"/><path d="M19 5h1v1h-1z" shape-rendering="crispEdges" style="fill:#ea88c7;opacity:255"/><path d="M20 5h1v1h-1zM5 6h1v1H5z" shape-rendering="crispEdges" style="fill:#8b3a6e;opacity:255"/><path d="M6 6h1v1H6z" shape-rendering="crispEdges" style="fill:#f4b0dc;opacity:255"/><path d="M7 6h1v1H7z" shape-rendering="crispEdges" style="fill:#eb88c7;opacity:255"/><path d="M8 6h1v1H8zM17 6h1v1h-1z" shape-rendering="crispEdges" style="fill:#8b3a6e;opacity:255"/><path d="M18 6h1v1h-1z" shape-rendering="crispEdges" style="fill:#f5b0dc;opacity:255"/><path d="M19 6h1v1h-1z" shape-rendering="crispEdges" style="fill:#eb88c7;opacity:255"/><path d="M20 6h1v1h-1z" shape-rendering="crispEdges" style="fill:#8b3a6e;opacity:255"/><path d="M5 7h1v1H5z" shape-rendering="crispEdges" style="fill:#8a3a6e;opacity:255"/><path d="M6 7h1v1H6z" shape-rendering="crispEdges" style="fill:#f5b0dc;opacity:255"/><path d="M7 7h1v1H7z" shape-rendering="crispEdges" style="fill:#eb88c7;opacity:255"/><path d="M8 7h1v1H8z" shape-rendering="crispEdges" style="fill:#8b3a6e;opacity:255"/><path d="M17 7h1v1h-1z" shape-rendering="crispEdges" style="fill:#8b3b6e;opacity:255"/><path d="M18 7h1v1h-1z" shape-rendering="crispEdges" style="fill:#f5b0dd;opacity:255"/><path d="M19 7h1v1h-1z" shape-rendering="crispEdges" style="fill:#ea88c7;opacity:255"/><path d="M20 7h1v1h-1z" shape-rendering="crispEdges" style="fill:#8b3a6f;opacity:255"/><path d="M5 8h1v1H5z" shape-rendering="crispEdges" style="fill:#8b3b6e;opacity:255"/><path d="M6 8h1v1H6z" shape-rendering="crispEdges" style="fill:#f5b0dc;opacity:255"/><path d="M7 8h1v1H7z" shape-rendering="crispEdges" style="fill:#eb88c7;opacity:255"/><path d="M8 8h1v1H8zM17 8h1v1h-1z" shape-rendering="crispEdges" style="fill:#8b3a6e;opacity:255"/><path d="M18 8h1v1h-1z" shape-rendering="crispEdges" style="fill:#f5b0dc;opacity:255"/><path d="M19 8h1v1h-1z" shape-rendering="crispEdges" style="fill:#eb88c7;opacity:255"/><path d="M20 8h1v1h-1z" shape-rendering="crispEdges" style="fill:#8b3a6e;opacity:255"/><path d="M5 9h1v1H5z" shape-rendering="crispEdges" style="fill:#8b3a6f;opacity:255"/><path d="M6 9h1v1H6z" shape-rendering="crispEdges" style="fill:#f5b0dc;opacity:255"/><path d="M7 9h1v1H7z" shape-rendering="crispEdges" style="fill:#eb89c7;opacity:255"/><path d="M8 9h1v1H8z" shape-rendering="crispEdges" style="fill:#8b3b6f;opacity:255"/><path d="M17 9h1v1h-1z" shape-rendering="crispEdges" style="fill:#8b3a6e;opacity:255"/><path d="M18 9h1v1h-1z" shape-rendering="crispEdges" style="fill:#f5b0dc;opacity:255"/><path d="M19 9h1v1h-1z" shape-rendering="crispEdges" style="fill:#eb88c6;opacity:255"/><path d="M20 9h1v1h-1z" shape-rendering="crispEdges" style="fill:#8b3b6e;opacity:255"/><path d="M5 10h1v1H5z" shape-rendering="crispEdges" style="fill:#8b3a6e;opacity:255"/><path d="M6 10h1v1H6z" shape-rendering="crispEdges" style="fill:#f4b0dc;opacity:255"/><path d="M7 10h1v1H7z" shape-rendering="crispEdges" style="fill:#eb88c7;opacity:255"/><path d="M8 10h1v1H8zM17 10h1v1h-1z" shape-rendering="crispEdges" style="fill:#8b3a6e;opacity:255"/><path d="M18 10h1v1h-1z" shape-rendering="crispEdges" style="fill:#f5b0dc;opacity:255"/><path d="M19 10h1v1h-1z" shape-rendering="crispEdges" style="fill:#eb88c7;opacity:255"/><path d="M20 10h1v1h-1z" shape-rendering="crispEdges" style="fill:#8b3a6e;opacity:255"/><path d="M5 11h1v1H5z" shape-rendering="crispEdges" style="fill:#8a3b6e;opacity:255"/><path d="M6 11h1v1H6z" shape-rendering="crispEdges" style="fill:#f5b0dc;opacity:255"/><path d="M7 11h1v1H7z" shape-rendering="crispEdges" style="fill:#eb88c7;opacity:255"/><path d="M8 11h1v1H8zM17 11h1v1h-1z" shape-rendering="crispEdges" style="fill:#8b3a6e;opacity:255"/><path d="M18 11h1v1h-1z" shape-rendering="crispEdges" style="fill:#f5b0dd;opacity:255"/><path d="M19 11h1v1h-1z" shape-rendering="crispEdges" style="fill:#eb88c7;opacity:255"/><path d="M20 11h1v1h-1zM5 12h1v1H5z" shape-rendering="crispEdges" style="fill:#8a3a6e;opacity:255"/><path d="M6 12h1v1H6z" shape-rendering="crispEdges" style="fill:#f5b0dc;opacity:255"/><path d="M7 12h1v1H7z" shape-rendering="crispEdges" style="fill:#eb88c7;opacity:255"/><path d="M8 12h1v1H8z" shape-rendering="crispEdges" style="fill:#8b3a6e;opacity:255"/><path d="M17 12h1v1h-1z" shape-rendering="crispEdges" style="fill:#8b3a6f;opacity:255"/><path d="M18 12h1v1h-1z" shape-rendering="crispEdges" style="fill:#f5b0dc;opacity:255"/><path d="M19 12h1v1h-1z" shape-rendering="crispEdges" style="fill:#eb88c7;opacity:255"/><path d="M20 12h1v1h-1zM5 13h1v1H5z" shape-rendering="crispEdges" style="fill:#8b3a6e;opacity:255"/><path d="M6 13h1v1H6z" shape-rendering="crispEdges" style="fill:#f5b0dc;opacity:255"/><path d="M7 13h1v1H7z" shape-rendering="crispEdges" style="fill:#eb88c7;opacity:255"/><path d="M8 13h1v1H8z" shape-rendering="crispEdges" style="fill:#8b3a6e;opacity:255"/><path d="M17 13h1v1h-1z" shape-rendering="crispEdges" style="fill:#8b3b6e;opacity:255"/><path d="M18 13h1v1h-1z" shape-rendering="crispEdges" style="fill:#f4b0dd;opacity:255"/><path d="M19 13h1v1h-1z" shape-rendering="crispEdges" style="fill:#ea88c6;opacity:255"/><path d="M20 13h1v1h-1z" shape-rendering="crispEdges" style="fill:#8b3b6e;opacity:255"/><path d="M5 14h1v1H5z" shape-rendering="crispEdges" style="fill:#8b3a6e;opacity:255"/><path d="M6 14h1v1H6z" shape-rendering="crispEdges" style="fill:#f5b0dd;opacity:255"/><path d="M7 14h1v1H7z" shape-rendering="crispEdges" style="fill:#eb88c7;opacity:255"/><path d="M8 14h1v1H8z" shape-rendering="crispEdges" style="fill:#8b3a6f;opacity:255"/><path d="M17 14h1v1h-1z" shape-rendering="crispEdges" style="fill:#8b3a6e;opacity:255"/><path d="M18 14h1v1h-1z" shape-rendering="crispEdges" style="fill:#f5b0dd;opacity:255"/><path d="M19 14h1v1h-1z" shape-rendering="crispEdges" style="fill:#eb88c7;opacity:255"/><path d="M20 14h1v1h-1z" shape-rendering="crispEdges" style="fill:#8b3a6e;opacity:255"/><path d="M2 15h1v1H2z" shape-rendering="crispEdges" style="fill:#8b3b6e;opacity:255"/><path d="M3 15h1v1H3zM4 15h1v1H4zM5 15h1v1H5z" shape-rendering="crispEdges" style="fill:#8b3a6e;opacity:255"/><path d="M6 15h1v1H6z" shape-rendering="crispEdges" style="fill:#f5b0dc;opacity:255"/><path d="M7 15h1v1H7z" shape-rendering="crispEdges" style="fill:#eb88c7;opacity:255"/><path d="M8 15h1v1H8zM14 15h1v1h-1zM15 15h1v1h-1zM16 15h1v1h-1zM17 15h1v1h-1z" shape-rendering="crispEdges" style="fill:#8b3a6e;opacity:255"/><path d="M18 15h1v1h-1z" shape-rendering="crispEdges" style="fill:#f5b1dc;opacity:255"/><path d="M19 15h1v1h-1z" shape-rendering="crispEdges" style="fill:#eb88c7;opacity:255"/><path d="M20 15h1v1h-1zM1 16h1v1H1z" shape-rendering="crispEdges" style="fill:#8b3a6e;opacity:255"/><path d="M2 16h1v1H2z" shape-rendering="crispEdges" style="fill:#ffdbf2;opacity:255"/><path d="M3 16h1v1H3z" shape-rendering="crispEdges" style="fill:#ffdbf3;opacity:255"/><path d="M4 16h1v1H4z" shape-rendering="crispEdges" style="fill:#f4b0dc;opacity:255"/><path d="M5 16h1v1H5zM6 16h1v1H6z" shape-rendering="crispEdges" style="fill:#f5b0dc;opacity:255"/><path d="M7 16h1v1H7z" shape-rendering="crispEdges" style="fill:#eb88c7;opacity:255"/><path d="M8 16h1v1H8z" shape-rendering="crispEdges" style="fill:#8b3b6e;opacity:255"/><path d="M13 16h1v1h-1z" shape-rendering="crispEdges" style="fill:#8b3a6e;opacity:255"/><path d="M14 16h1v1h-1zM15 16h1v1h-1z" shape-rendering="crispEdges" style="fill:#ffdbf2;opacity:255"/><path d="M16 16h1v1h-1z" shape-rendering="crispEdges" style="fill:#f5b1dc;opacity:255"/><path d="M17 16h1v1h-1z" shape-rendering="crispEdges" style="fill:#f4b1dc;opacity:255"/><path d="M18 16h1v1h-1z" shape-rendering="crispEdges" style="fill:#f5b0dc;opacity:255"/><path d="M19 16h1v1h-1z" shape-rendering="crispEdges" style="fill:#ea88c7;opacity:255"/><path d="M20 16h1v1h-1z" shape-rendering="crispEdges" style="fill:#8b3a6e;opacity:255"/><path d="M0 17h1v1H0z" shape-rendering="crispEdges" style="fill:#8b3b6e;opacity:255"/><path d="M1 17h1v1H1z" shape-rendering="crispEdges" style="fill:#f5b0dc;opacity:255"/><path d="M2 17h1v1H2z" shape-rendering="crispEdges" style="fill:#fedbf2;opacity:255"/><path d="M3 17h1v1H3z" shape-rendering="crispEdges" style="fill:#ffdbf2;opacity:255"/><path d="M4 17h1v1H4z" shape-rendering="crispEdges" style="fill:#f5b0dc;opacity:255"/><path d="M5 17h1v1H5z" shape-rendering="crispEdges" style="fill:#f5b1dc;opacity:255"/><path d="M6 17h1v1H6z" shape-rendering="crispEdges" style="fill:#f4b0dc;opacity:255"/><path d="M7 17h1v1H7z" shape-rendering="crispEdges" style="fill:#eb88c7;opacity:255"/><path d="M8 17h1v1H8zM12 17h1v1h-1z" shape-rendering="crispEdges" style="fill:#8b3a6e;opacity:255"/><path d="M13 17h1v1h-1z" shape-rendering="crispEdges" style="fill:#f4b0dc;opacity:255"/><path d="M14 17h1v1h-1zM15 17h1v1h-1z" shape-rendering="crispEdges" style="fill:#ffdbf2;opacity:255"/><path d="M16 17h1v1h-1z" shape-rendering="crispEdges" style="fill:#f5b0dc;opacity:255"/><path d="M17 17h1v1h-1zM18 17h1v1h-1z" shape-rendering="crispEdges" style="fill:#f5b1dc;opacity:255"/><path d="M19 17h1v1h-1z" shape-rendering="crispEdges" style="fill:#eb88c6;opacity:255"/><path d="M20 17h1v1h-1z" shape-rendering="crispEdges" style="fill:#8b3b6e;opacity:255"/><path d="M0 18h1v1H0z" shape-rendering="crispEdges" style="fill:#8b3a6f;opacity:255"/><path d="M1 18h1v1H1z" shape-rendering="crispEdges" style="fill:#f5b1dc;opacity:255"/><path d="M2 18h1v1H2zM3 18h1v1H3zM4 18h1v1H4z" shape-rendering="crispEdges" style="fill:#f5b0dc;opacity:255"/><path d="M5 18h1v1H5z" shape-rendering="crispEdges" style="fill:#f4b1dc;opacity:255"/><path d="M6 18h1v1H6z" shape-rendering="crispEdges" style="fill:#f5b0dc;opacity:255"/><path d="M7 18h1v1H7z" shape-rendering="crispEdges" style="fill:#ea88c7;opacity:255"/><path d="M8 18h1v1H8zM12 18h1v1h-1z" shape-rendering="crispEdges" style="fill:#8b3a6e;opacity:255"/><path d="M13 18h1v1h-1z" shape-rendering="crispEdges" style="fill:#f4b1dc;opacity:255"/><path d="M14 18h1v1h-1z" shape-rendering="crispEdges" style="fill:#f5b0dc;opacity:255"/><path d="M15 18h1v1h-1z" shape-rendering="crispEdges" style="fill:#f5b0dd;opacity:255"/><path d="M16 18h1v1h-1z" shape-rendering="crispEdges" style="fill:#f5b1dd;opacity:255"/><path d="M17 18h1v1h-1zM18 18h1v1h-1z" shape-rendering="crispEdges" style="fill:#f5b0dc;opacity:255"/><path d="M19 18h1v1h-1z" shape-rendering="crispEdges" style="fill:#eb89c7;opacity:255"/><path d="M20 18h1v1h-1z" shape-rendering="crispEdges" style="fill:#8b3a6e;opacity:255"/><path d="M0 19h1v1H0z" shape-rendering="crispEdges" style="fill:#8b3a6f;opacity:255"/><path d="M1 19h1v1H1zM2 19h1v1H2z" shape-rendering="crispEdges" style="fill:#f5b0dc;opacity:255"/><path d="M3 19h1v1H3zM4 19h1v1H4z" shape-rendering="crispEdges" style="fill:#f4b0dd;opacity:255"/><path d="M5 19h1v1H5z" shape-rendering="crispEdges" style="fill:#f5b0dc;opacity:255"/><path d="M6 19h1v1H6z" shape-rendering="crispEdges" style="fill:#eb88c6;opacity:255"/><path d="M7 19h1v1H7z" shape-rendering="crispEdges" style="fill:#eb88c7;opacity:255"/><path d="M8 19h1v1H8zM12 19h1v1h-1z" shape-rendering="crispEdges" style="fill:#8b3a6e;opacity:255"/><path d="M13 19h1v1h-1zM14 19h1v1h-1z" shape-rendering="crispEdges" style="fill:#f5b0dc;opacity:255"/><path d="M15 19h1v1h-1z" shape-rendering="crispEdges" style="fill:#f4b0dc;opacity:255"/><path d="M16 19h1v1h-1zM17 19h1v1h-1z" shape-rendering="crispEdges" style="fill:#f5b0dc;opacity:255"/><path d="M18 19h1v1h-1zM19 19h1v1h-1z" shape-rendering="crispEdges" style="fill:#eb88c7;opacity:255"/><path d="M20 19h1v1h-1zM0 20h1v1H0z" shape-rendering="crispEdges" style="fill:#8b3a6e;opacity:255"/><path d="M1 20h1v1H1z" shape-rendering="crispEdges" style="fill:#f5b0dd;opacity:255"/><path d="M2 20h1v1H2z" shape-rendering="crispEdges" style="fill:#f4b0dc;opacity:255"/><path d="M3 20h1v1H3z" shape-rendering="crispEdges" style="fill:#f5b0dc;opacity:255"/><path d="M4 20h1v1H4z" shape-rendering="crispEdges" style="fill:#eb88c7;opacity:255"/><path d="M5 20h1v1H5z" shape-rendering="crispEdges" style="fill:#eb88c6;opacity:255"/><path d="M6 20h1v1H6z" shape-rendering="crispEdges" style="fill:#eb88c7;opacity:255"/><path d="M7 20h1v1H7z" shape-rendering="crispEdges" style="fill:#8b3a6e;opacity:255"/><path d="M12 20h1v1h-1z" shape-rendering="crispEdges" style="fill:#8a3a6e;opacity:255"/><path d="M13 20h1v1h-1z" shape-rendering="crispEdges" style="fill:#f5b0dc;opacity:255"/><path d="M14 20h1v1h-1z" shape-rendering="crispEdges" style="fill:#f4b0dc;opacity:255"/><path d="M15 20h1v1h-1z" shape-rendering="crispEdges" style="fill:#f5b0dc;opacity:255"/><path d="M16 20h1v1h-1z" shape-rendering="crispEdges" style="fill:#eb88c7;opacity:255"/><path d="M17 20h1v1h-1z" shape-rendering="crispEdges" style="fill:#eb89c7;opacity:255"/><path d="M18 20h1v1h-1z" shape-rendering="crispEdges" style="fill:#eb88c7;opacity:255"/><path d="M19 20h1v1h-1zM1 21h1v1H1z" shape-rendering="crispEdges" style="fill:#8b3a6e;opacity:255"/><path d="M2 21h1v1H2z" shape-rendering="crispEdges" style="fill:#f5b0dc;opacity:255"/><path d="M3 21h1v1H3zM4 21h1v1H4zM5 21h1v1H5z" shape-rendering="crispEdges" style="fill:#eb88c7;opacity:255"/><path d="M6 21h1v1H6z" shape-rendering="crispEdges" style="fill:#8a3a6e;opacity:255"/><path d="M13 21h1v1h-1z" shape-rendering="crispEdges" style="fill:#8b3a6e;opacity:255"/><path d="M14 21h1v1h-1z" shape-rendering="crispEdges" style="fill:#f5b0dc;opacity:255"/><path d="M15 21h1v1h-1zM16 21h1v1h-1zM17 21h1v1h-1z" shape-rendering="crispEdges" style="fill:#eb88c7;opacity:255"/><path d="M18 21h1v1h-1z" shape-rendering="crispEdges" style="fill:#8b3a6e;opacity:255"/><path d="M2 22h1v1H2z" shape-rendering="crispEdges" style="fill:#8a3a6e;opacity:255"/><path d="M3 22h1v1H3zM4 22h1v1H4zM5 22h1v1H5zM14 22h1v1h-1z" shape-rendering="crispEdges" style="fill:#8b3a6e;opacity:255"/><path d="M15 22h1v1h-1z" shape-rendering="crispEdges" style="fill:#8b3b6e;opacity:255"/><path d="M16 22h1v1h-1z" shape-rendering="crispEdges" style="fill:#8b3a6f;opacity:255"/><path d="M17 22h1v1h-1z" shape-rendering="crispEdges" style="fill:#8b3a6e;opacity:255"/></svg>